<?xml version="1.0" encoding="UTF-8" standalone="no"?>
<svg width="233.892mm" height="66.675mm"
 viewBox="0 0 663 189"
 xmlns="http://www.w3.org/2000/svg" xmlns:xlink="http://www.w3.org/1999/xlink"  version="1.2" baseProfile="tiny">
<title>Exported image from Sonic Visualiser</title>
<desc>Generated with Qt</desc>
<defs>
</defs>
<g fill="none" stroke="black" stroke-width="1" fill-rule="evenodd" stroke-linecap="square" stroke-linejoin="bevel" >

<g fill="#ffffff" fill-opacity="1" stroke="#ffffff" stroke-opacity="1" stroke-width="1" stroke-linecap="square" stroke-linejoin="bevel" transform="matrix(1,0,0,1,0,0)"
font-family="Segoe UI" font-size="9" font-weight="400" font-style="normal" 
>
<rect x="32" y="0" width="695" height="189"/>
</g>

<g fill="none" stroke="#000000" stroke-opacity="1" stroke-width="1" stroke-linecap="square" stroke-linejoin="bevel" transform="matrix(1,0,0,1,0,0)"
font-family="Segoe UI" font-size="9" font-weight="400" font-style="normal" 
>
</g>

<g fill="none" stroke="#000000" stroke-opacity="1" stroke-width="1" stroke-linecap="square" stroke-linejoin="bevel" transform="matrix(1,0,0,1,32,0)"
font-family="Segoe UI" font-size="9" font-weight="400" font-style="normal" 
>
</g>

<g fill="none" stroke="#f0f0f0" stroke-opacity="1" stroke-width="1" stroke-linecap="square" stroke-linejoin="bevel" transform="matrix(1,0,0,1,32,0)"
font-family="Segoe UI" font-size="9" font-weight="400" font-style="normal" 
>
<polyline fill="none" vector-effect="none" points="0,143 695,143 " />
<polyline fill="none" vector-effect="none" points="0,128 695,128 " />
<polyline fill="none" vector-effect="none" points="0,113 695,113 " />
<polyline fill="none" vector-effect="none" points="0,98 695,98 " />
<polyline fill="none" vector-effect="none" points="0,82 695,82 " />
<polyline fill="none" vector-effect="none" points="0,67 695,67 " />
<polyline fill="none" vector-effect="none" points="0,52 695,52 " />
<polyline fill="none" vector-effect="none" points="0,37 695,37 " />
<polyline fill="none" vector-effect="none" points="0,21 695,21 " />
</g>

<g fill="none" stroke="#ff9632" stroke-opacity="1" stroke-width="1" stroke-linecap="square" stroke-linejoin="bevel" transform="matrix(1,0,0,1,32,0)"
font-family="Segoe UI" font-size="9" font-weight="400" font-style="normal" 
>
<path vector-effect="none" fill-rule="evenodd" d="M29,54.7918 L202.996,56.7066 L245.852,65.2441 L271.48,76.9794 L289.824,65.5398 L304.121,65.8753 L315.837,65.9807 L325.764,64.1843 L334.376,69.7587 L341.982,68.1552 L348.791,67.5197 L354.956,69.1824 L360.587,68.9386 L365.77,68.3136 L370.57,73.5439 L375.041,74.1879 L379.225,81.3948 L383.156,75.2797 L386.863,69.7775 L390.371,70.2917 L393.699,78.3688 L396.866,78.5928 L399.886,74.0661 L402.772,77.4381 L405.535,78.8291 L408.186,76.0439 L410.733,74.7454 L413.185,76.3279 L415.547,69.8547 L417.827,72.6047 L420.03,78.2543 L422.16,78.1432 L424.223,85.2073 L426.223,80.7571 L428.163,81.5171 L430.047,76.9832 L431.878,77.5181 L433.659,80.5196 L435.393,77.4167 L437.082,76.038 L438.728,80.4247 L440.333,80.4791 L441.9,75.8821 L443.43,78.1246 L444.925,79.1819 L446.386,85.2182 L447.816,82.96 L449.214,77.0845 L450.583,80.2124 L451.924,84.7222 L453.238,82.0253 L454.526,79.9991 L455.789,80.7119 L457.028,84.7593 L458.244,107.349 L459.438,83.1351 L460.61,80.539 L461.761,83.8939 L462.893,82.2559 L464.005,79.1942 L465.098,84.4063 L466.173,77.646 L467.231,79.0212 L468.272,85.3721 L469.297,90.1472 L470.305,96.1675 L471.299,84.6971 L472.277,83.95 L473.241,84.3089 L474.191,86.3809 L475.127,82.0186 L476.05,87.0908 L476.96,91.0295 L477.858,87.7562 L478.743,104.517 L479.617,87.8251 L481.329,93.4459 L481.329,87.9337 M481.329,93.4459 L482.169,86.9377 L482.998,90.376 L483.816,93.3329 L484.625,84.0157 L486.212,77.2892 L486.212,76.9302 M486.212,77.2892 L486.991,79.8091 L487.762,86.5474 L489.275,86.6725 L489.275,85.6983 M489.275,86.6725 L490.019,89.6604 L490.754,85.508 L492.201,84.6698 L492.201,82.5574 M492.201,84.6698 L492.912,84.2054 L494.312,86.5429 L494.312,83.8884 M494.312,86.5429 L495,83.1405 L495.682,81.5774 L497.024,88.6104 L497.024,82.617 M497.024,88.6104 L497.685,88.936 L498.987,95.3702 L498.987,89.0577 M498.987,95.3702 L500.263,89.48 L500.263,86.6189 M500.263,89.48 L500.892,84.3597 L502.132,87.2633 L502.132,84.1261 M502.132,87.2633 L502.743,90.6239 L503.948,104.38 L503.948,91.488 M503.948,104.38 L505.132,96.6314 L505.132,92.2948 M505.132,96.6314 L505.716,92.784 L506.868,95.6007 L506.868,90.1001 M506.868,95.6007 L508,88.5445 L508,87.306 M508,88.5445 L509.113,88.1236 L509.113,86.0933 M509.113,88.1236 L510.207,83.2361 L510.207,81.8753 M510.207,83.2361 L510.747,86.895 L511.814,96.8557 L511.814,91.3939 M511.814,96.8557 L512.864,90.29 L512.864,82.2316 M512.864,90.29 L513.897,90.4049 L513.897,81.641 M513.897,90.4049 L514.914,92.3792 L514.914,85.5411 M514.914,92.3792 L515.916,81.021 L515.916,80.6898 M515.916,81.021 L516.902,87.698 L516.902,86.3611 M516.902,87.698 L517.874,94.1153 L517.874,93.5096 M517.874,94.1153 L518.831,95.3439 L518.831,92.995 M518.831,95.3439 L519.775,101.633 L519.775,89.2026 M519.775,101.633 L521.165,98.3378 L521.165,96.4646 M521.165,98.3378 L522.076,97.0087 L522.076,88.278 M522.076,97.0087 L522.974,91.3601 L522.974,89.447 M522.974,91.3601 L523.859,94.424 L523.859,90.772 M523.859,94.424 L525.166,90.6858 L525.166,86.036 M525.166,90.6858 L526.022,93.2573 L526.022,86.6294 M526.022,93.2573 L526.868,96.2058 L526.868,87.1707 M526.868,96.2058 L528.116,91.1766 L528.116,88.6321 M528.116,91.1766 L528.935,88.5717 L528.935,87.9873 M528.935,88.5717 L530.144,90.5046 L530.144,85.8706 M530.144,90.5046 L530.938,86.8447 L530.938,86.5905 M530.938,86.8447 L532.112,93.5247 L532.112,86.1752 M532.112,93.5247 L532.882,89.6978 L532.882,87.1163 M532.882,89.6978 L534.021,91.1056 L534.021,90.067 M534.021,91.1056 L535.14,93.4599 L535.14,90.1501 M535.14,93.4599 L535.876,89.509 L535.876,86.5187 M535.876,89.509 L536.964,94.8701 L536.964,88.8568 M536.964,94.8701 L538.035,90.6369 L538.035,88.5243 M538.035,90.6369 L539.088,109.602 L539.088,87.78 M539.088,109.602 L540.124,90.8642 L540.124,85.4468 M540.124,90.8642 L541.144,94.7186 L541.144,89.8798 M541.144,94.7186 L542.148,97.5493 L542.148,92.7611 M542.148,97.5493 L543.137,99.8155 L543.137,92.8033 M543.137,99.8155 L544.112,96.7926 L544.112,90.4221 M544.112,96.7926 L545.071,95.187 L545.071,91.8422 M545.071,95.187 L546.017,102.55 L546.017,98.1376 M546.017,102.55 L546.95,93.7211 L546.95,91.0529 M546.95,93.7211 L547.869,97.1503 L547.869,90.78 M547.869,97.1503 L549.075,96.3991 L549.075,89.9725 M549.075,96.3991 L549.965,98.3899 L549.965,90.0475 M549.965,98.3899 L551.133,91.418 L551.133,90.3028 M551.133,91.418 L551.995,92.0203 L551.995,89.3675 M551.995,92.0203 L553.128,102.793 L553.128,91.1905 M553.128,102.793 L553.964,95.9888 L553.964,92.6714 M553.964,95.9888 L555.063,100.894 L555.063,93.1329 M555.063,100.894 L555.876,93.7443 L555.876,91.9779 M555.876,93.7443 L556.943,100.654 L556.943,92.9358 M556.943,100.654 L557.994,105.073 L557.994,91.2908 M557.994,105.073 L559.027,94.5619 L559.027,90.6938 M559.027,94.5619 L560.045,106.611 L560.045,97.1154 M560.045,106.611 L561.046,107.011 L561.046,94.5894 M561.046,107.011 L562.033,108.725 L562.033,95.2311 M562.033,108.725 L563.005,101.828 L563.005,88.7708 M563.005,101.828 L563.963,97.0229 L563.963,88.8921 M563.963,97.0229 L564.906,101.281 L564.906,94.1305 M564.906,101.281 L566.067,97.7814 L566.067,90.1159 M566.067,97.7814 L566.981,105.8 L566.981,97.0501 M566.981,105.8 L568.106,110.529 L568.106,96.3986 M568.106,110.529 L568.992,99.5812 L568.992,94.3791 M568.992,99.5812 L570.083,105.268 L570.083,94.0286 M570.083,105.268 L570.942,99.3923 L570.942,92.7289 M570.942,99.3923 L572.001,100.562 L572.001,95.782 M572.001,100.562 L573.043,105.021 L573.043,94.803 M573.043,105.021 L574.069,106.576 L574.069,92.403 M574.069,106.576 L575.078,97.5237 L575.078,92.2113 M575.078,97.5237 L576.073,99.7995 L576.073,93.6945 M576.073,99.7995 L577.052,101.769 L577.052,96.515 M577.052,101.769 L578.017,100.809 L578.017,89.9282 M578.017,100.809 L578.968,98.9507 L578.968,91.3375 M578.968,98.9507 L580.09,105.631 L580.09,89.9196 M580.09,105.631 L581.011,98.597 L581.011,93.2604 M581.011,98.597 L581.92,102.115 L581.92,92.6637 M581.92,102.115 L582.993,100.362 L582.993,91.2752 M582.993,100.362 L584.049,100.786 L584.049,90.0692 M584.049,100.786 L584.916,105.137 L584.916,91.4329 M584.916,105.137 L585.942,101.733 L585.942,91.7469 M585.942,101.733 L586.952,107.284 L586.952,92.7027 M586.952,107.284 L587.946,109.799 L587.946,98.2091 M587.946,109.799 L588.925,101.769 L588.925,96.4289 M588.925,101.769 L590.05,109.271 L590.05,97.1787 M590.05,109.271 L590.998,99.8235 L590.998,95.9169 M590.998,99.8235 L591.933,106.311 L591.933,93.5018 M591.933,106.311 L593.007,112.061 L593.007,96.2581 M593.007,112.061 L594.063,117.007 L594.063,95.5256 M594.063,117.007 L594.955,112.569 L594.955,95.8734 M594.955,112.569 L595.981,106.106 L595.981,97.4288 M595.981,106.106 L596.991,109.735 L596.991,93.1039 M596.991,109.735 L597.985,107.35 L597.985,96.8672 M597.985,107.35 L598.964,103.304 L598.964,94.656 M598.964,103.304 L600.066,110.295 L600.066,95.7175 M600.066,110.295 L601.015,105.087 L601.015,96.8875 M601.015,105.087 L601.95,106.691 L601.95,96.1847 M601.95,106.691 L603.002,108.181 L603.002,97.7733 M603.002,108.181 L604.038,103.349 L604.038,94.4987 M604.038,103.349 L605.058,104.784 L605.058,93.4539 M605.058,104.784 L606.062,109.939 L606.062,98.9224 M606.062,109.939 L607.05,108.545 L607.05,95.0894 M607.05,108.545 L608.024,108.285 L608.024,95.9914 M608.024,108.285 L608.984,109.604 L608.984,96.1621 M608.984,109.604 L610.047,117.147 L610.047,98.7864 M610.047,117.147 L610.977,103.321 L610.977,95.7217 M610.977,103.321 L612.008,102.917 L612.008,95.5015 M612.008,102.917 L613.023,105.573 L613.023,95.4275 M613.023,105.573 L614.023,107.624 L614.023,96.121 M614.023,107.624 L615.007,102.685 L615.007,96.3239 M615.007,102.685 L615.977,105.519 L615.977,94.9047 M615.977,105.519 L617.037,110.604 L617.037,92.1685 M617.037,110.604 L617.977,106.253 L617.977,92.6937 M617.977,106.253 L619.006,111.526 L619.006,95.3083 M619.006,111.526 L620.019,107.096 L620.019,97.585 M620.019,107.096 L621.017,107.365 L621.017,94.788 M621.017,107.365 L621.999,105.647 L621.999,94.0561 M621.999,105.647 L622.967,111.825 L622.967,98.6788 M622.967,111.825 L624.015,108.047 L624.015,95.7907 M624.015,108.047 L624.953,106.359 L624.953,96.3421 M624.953,106.359 L625.97,107.591 L625.97,95.0744 M625.97,107.591 L626.972,109.197 L626.972,97.0849 M626.972,109.197 L627.958,112.756 L627.958,94.9877 M627.958,112.756 L629.017,107.869 L629.017,96.6862 M629.017,107.869 L629.973,109.896 L629.973,96.6034 M629.973,109.896 L631,109.627 L631,96.2741 M631,109.627 L632.011,114.612 L632.011,97.4074 M632.011,114.612 L633.007,112.627 L633.007,93.9266 M633.007,112.627 L633.987,106.774 L633.987,98.6058 M633.987,106.774 L635.033,113.906 L635.033,95.7208 M635.033,113.906 L635.984,119.002 L635.984,96.7559 M635.984,119.002 L636.999,107.249 L636.999,95.6071 M636.999,107.249 L637.998,113.661 L637.998,98.1331 M637.998,113.661 L638.982,101.557 L638.982,95.8648 M638.982,101.557 L640.025,110.609 L640.025,98.5761 M640.025,110.609 L640.979,111.368 L640.979,96.0664 M640.979,111.368 L641.991,104.869 L641.991,95.4741 M641.991,104.869 L642.988,103.581 L642.988,97.1578 M642.988,103.581 L643.969,111.316 L643.969,97.6831 M643.969,111.316 L645.005,109.904 L645.005,95.8362 M645.005,109.904 L646.024,119.706 L646.024,96.8346 M646.024,119.706 L647.028,111.101 L647.028,95.4397 M647.028,111.101 L648.016,110.664 L648.016,95.7267 M648.016,110.664 L648.989,113.949 L648.989,95.8016 M648.989,113.949 L650.012,109.958 L650.012,96.8286 M650.012,109.958 L651.019,105.125 L651.019,97.212 M651.019,105.125 L652.011,102.691 L652.011,95.1988 M652.011,102.691 L652.987,108.348 L652.987,95.1771 M652.987,108.348 L654.009,110.79 L654.009,97.5806 M654.009,110.79 L655.015,111.84 L655.015,97.1605 M655.015,111.84 L656.006,115.948 L656.006,96.1333 M656.006,115.948 L656.982,106.152 L656.982,95.5545 M656.982,106.152 L658,108.555 L658,97.1724 M658,108.555 L659.002,119.979 L659.002,97.7706 M659.002,119.979 L659.989,109.225 L659.989,93.9299 M659.989,109.225 L661.015,111.337 L661.015,99.1887 M661.015,111.337 L662.024,109.168 L662.024,97.3249 M662.024,109.168 L663.019,119.197 L663.019,98.2899 M663.019,119.197 L663.998,111.012 L663.998,96.7609 M663.998,111.012 L665.014,110.086 L665.014,95.2801 M665.014,110.086 L666.013,110.333 L666.013,99.3483 M666.013,110.333 L666.998,111.957 L666.998,99.3795 M666.998,111.957 L668.016,112.449 L668.016,97.115 M668.016,112.449 L669.018,106.39 L669.018,96.8179 M669.018,106.39 L670.006,112.327 L670.006,99.6282 M670.006,112.327 L670.978,108.164 L670.978,97.2691 M670.978,108.164 L671.982,122.021 L671.982,99.5243 M671.982,122.021 L673.014,109.621 L673.014,96.3632 M673.014,109.621 L673.987,114.252 L673.987,96.5716 M673.987,114.252 L674.989,114.775 L674.989,98.2621 M674.989,114.775 L676.018,118.021 L676.018,95.8448 M676.018,118.021 L676.989,110.223 L676.989,99.1613 M676.989,110.223 L677.988,108.215 L677.988,96.6938 M677.988,108.215 L679.011,112.693 L679.011,97.3614 M679.011,112.693 L680.019,115.022 L680.019,95.082 M680.019,115.022 L681.012,116.054 L681.012,98.3337 M681.012,116.054 L681.99,110.293 L681.99,97.066 M681.99,110.293 L682.991,113.769 L682.991,96.8893 M682.991,113.769 L684.015,116.061 L684.015,97.8421 M684.015,116.061 L684.986,116.178 L684.986,98.0887 M684.986,116.178 L686.016,114.096 L686.016,95.1775 M686.016,114.096 L686.994,121.911 L686.994,96.7183 M686.994,121.911 L687.993,123.224 L687.993,95.451 M687.993,123.224 L689.011,115.853 L689.011,99.1421 M689.011,115.853 L690.014,120.79 L690.014,99.1329 M690.014,120.79 L691.002,119.27 L691.002,97.8621 M691.002,119.27 L692.008,133.511 L692.008,101.242 M692.008,133.511 L692.999,118.487 L692.999,101.103 M692.999,118.487 L694.007,120.818 L694.007,103.12 M694.007,120.818 L694.968,136.076 L694.968,104.712 M694.968,136.076"/>
</g>

<g fill="none" stroke="#000000" stroke-opacity="1" stroke-width="1" stroke-linecap="square" stroke-linejoin="bevel" transform="matrix(1,0,0,1,32,0)"
font-family="Segoe UI" font-size="9" font-weight="400" font-style="normal" 
>
<polyline fill="none" vector-effect="none" points="29,156 723,156 " />
</g>

<g fill="#000000" fill-opacity="1" stroke="#000000" stroke-opacity="1" stroke-width="1" stroke-linecap="square" stroke-linejoin="bevel" transform="matrix(1,0,0,1,32,0)"
font-family="Segoe UI" font-size="9" font-weight="400" font-style="normal" 
>
<polyline fill="none" vector-effect="none" points="186,156 186,166 " />
</g>

<g fill="#a0a0a4" fill-opacity="1" stroke="none" transform="matrix(1,0,0,1,32,0)"
font-family="Segoe UI" font-size="9" font-weight="400" font-style="normal" 
>
<rect x="185" y="157" width="5" height="10"/>
</g>

<g fill="#000000" fill-opacity="1" stroke="#000000" stroke-opacity="1" stroke-width="1" stroke-linecap="square" stroke-linejoin="bevel" transform="matrix(1,0,0,1,32,0)"
font-family="Segoe UI" font-size="9" font-weight="400" font-style="normal" 
>
<polyline fill="none" vector-effect="none" points="190,156 190,166 " />
<rect x="189" y="161" width="2" height="5"/>
<polyline fill="none" vector-effect="none" points="197,156 197,166 " />
<rect x="196" y="161" width="2" height="5"/>
<polyline fill="none" vector-effect="none" points="202,156 202,166 " />
<polyline fill="none" vector-effect="none" points="207,156 207,166 " />
<rect x="206" y="161" width="2" height="5"/>
<polyline fill="none" vector-effect="none" points="214,156 214,166 " />
<rect x="213" y="161" width="2" height="5"/>
<polyline fill="none" vector-effect="none" points="222,156 222,166 " />
<rect x="221" y="161" width="2" height="5"/>
<polyline fill="none" vector-effect="none" points="227,156 227,166 " />
</g>

<g fill="#a0a0a4" fill-opacity="1" stroke="none" transform="matrix(1,0,0,1,32,0)"
font-family="Segoe UI" font-size="9" font-weight="400" font-style="normal" 
>
<rect x="228" y="157" width="4" height="10"/>
</g>

<g fill="#000000" fill-opacity="1" stroke="#000000" stroke-opacity="1" stroke-width="1" stroke-linecap="square" stroke-linejoin="bevel" transform="matrix(1,0,0,1,32,0)"
font-family="Segoe UI" font-size="9" font-weight="400" font-style="normal" 
>
<polyline fill="none" vector-effect="none" points="232,156 232,166 " />
<rect x="231" y="161" width="2" height="5"/>
<polyline fill="none" vector-effect="none" points="239,156 239,166 " />
<rect x="238" y="161" width="2" height="5"/>
<polyline fill="none" vector-effect="none" points="245,156 245,166 " />
<polyline fill="none" vector-effect="none" points="250,156 250,166 " />
<rect x="249" y="161" width="2" height="5"/>
<polyline fill="none" vector-effect="none" points="258,156 258,166 " />
<rect x="257" y="161" width="2" height="5"/>
<polyline fill="none" vector-effect="none" points="265,156 265,166 " />
<rect x="264" y="161" width="2" height="5"/>
<polyline fill="none" vector-effect="none" points="270,156 270,166 " />
</g>

<g fill="#a0a0a4" fill-opacity="1" stroke="none" transform="matrix(1,0,0,1,32,0)"
font-family="Segoe UI" font-size="9" font-weight="400" font-style="normal" 
>
<rect x="271" y="157" width="5" height="10"/>
</g>

<g fill="#000000" fill-opacity="1" stroke="#000000" stroke-opacity="1" stroke-width="1" stroke-linecap="square" stroke-linejoin="bevel" transform="matrix(1,0,0,1,32,0)"
font-family="Segoe UI" font-size="9" font-weight="400" font-style="normal" 
>
<polyline fill="none" vector-effect="none" points="276,156 276,166 " />
<rect x="275" y="161" width="2" height="5"/>
<polyline fill="none" vector-effect="none" points="283,156 283,166 " />
<rect x="282" y="161" width="2" height="5"/>
<polyline fill="none" vector-effect="none" points="289,156 289,166 " />
<polyline fill="none" vector-effect="none" points="294,156 294,166 " />
<rect x="293" y="161" width="2" height="5"/>
<polyline fill="none" vector-effect="none" points="302,156 302,166 " />
<rect x="301" y="161" width="2" height="5"/>
<polyline fill="none" vector-effect="none" points="309,156 309,166 " />
<rect x="308" y="161" width="2" height="5"/>
<polyline fill="none" vector-effect="none" points="315,156 315,166 " />
</g>

<g fill="#a0a0a4" fill-opacity="1" stroke="none" transform="matrix(1,0,0,1,32,0)"
font-family="Segoe UI" font-size="9" font-weight="400" font-style="normal" 
>
<rect x="316" y="157" width="4" height="10"/>
</g>

<g fill="#000000" fill-opacity="1" stroke="#000000" stroke-opacity="1" stroke-width="1" stroke-linecap="square" stroke-linejoin="bevel" transform="matrix(1,0,0,1,32,0)"
font-family="Segoe UI" font-size="9" font-weight="400" font-style="normal" 
>
<polyline fill="none" vector-effect="none" points="320,156 320,166 " />
<rect x="319" y="161" width="2" height="5"/>
<polyline fill="none" vector-effect="none" points="328,156 328,166 " />
<rect x="327" y="161" width="2" height="5"/>
<polyline fill="none" vector-effect="none" points="333,156 333,166 " />
<polyline fill="none" vector-effect="none" points="339,156 339,166 " />
<rect x="338" y="161" width="2" height="5"/>
<polyline fill="none" vector-effect="none" points="346,156 346,166 " />
<rect x="345" y="161" width="2" height="5"/>
<polyline fill="none" vector-effect="none" points="354,156 354,166 " />
<rect x="353" y="161" width="2" height="5"/>
<polyline fill="none" vector-effect="none" points="359,156 359,166 " />
</g>

<g fill="#a0a0a4" fill-opacity="1" stroke="none" transform="matrix(1,0,0,1,32,0)"
font-family="Segoe UI" font-size="9" font-weight="400" font-style="normal" 
>
<rect x="360" y="157" width="5" height="10"/>
</g>

<g fill="#000000" fill-opacity="1" stroke="#000000" stroke-opacity="1" stroke-width="1" stroke-linecap="square" stroke-linejoin="bevel" transform="matrix(1,0,0,1,32,0)"
font-family="Segoe UI" font-size="9" font-weight="400" font-style="normal" 
>
<polyline fill="none" vector-effect="none" points="365,156 365,166 " />
<rect x="364" y="161" width="2" height="5"/>
<polyline fill="none" vector-effect="none" points="373,156 373,166 " />
<rect x="372" y="161" width="2" height="5"/>
<polyline fill="none" vector-effect="none" points="378,156 378,166 " />
<polyline fill="none" vector-effect="none" points="384,156 384,166 " />
<rect x="383" y="161" width="2" height="5"/>
<polyline fill="none" vector-effect="none" points="391,156 391,166 " />
<rect x="390" y="161" width="2" height="5"/>
<polyline fill="none" vector-effect="none" points="399,156 399,166 " />
<rect x="398" y="161" width="2" height="5"/>
<polyline fill="none" vector-effect="none" points="404,156 404,166 " />
</g>

<g fill="#7f7fff" fill-opacity="1" stroke="none" transform="matrix(1,0,0,1,32,0)"
font-family="Segoe UI" font-size="9" font-weight="400" font-style="normal" 
>
<rect x="405" y="157" width="5" height="10"/>
</g>

<g fill="#000000" fill-opacity="1" stroke="#000000" stroke-opacity="1" stroke-width="1" stroke-linecap="square" stroke-linejoin="bevel" transform="matrix(1,0,0,1,32,0)"
font-family="Segoe UI" font-size="9" font-weight="400" font-style="normal" 
>
<polyline fill="none" vector-effect="none" points="410,156 410,166 " />
<rect x="409" y="161" width="2" height="5"/>
<polyline fill="none" vector-effect="none" points="418,156 418,166 " />
<rect x="417" y="161" width="2" height="5"/>
<polyline fill="none" vector-effect="none" points="423,156 423,166 " />
<polyline fill="none" vector-effect="none" points="429,156 429,166 " />
<rect x="428" y="161" width="2" height="5"/>
<polyline fill="none" vector-effect="none" points="436,156 436,166 " />
<rect x="435" y="161" width="2" height="5"/>
<polyline fill="none" vector-effect="none" points="444,156 444,166 " />
<rect x="443" y="161" width="2" height="5"/>
<polyline fill="none" vector-effect="none" points="449,156 449,166 " />
</g>

<g fill="#a0a0a4" fill-opacity="1" stroke="none" transform="matrix(1,0,0,1,32,0)"
font-family="Segoe UI" font-size="9" font-weight="400" font-style="normal" 
>
<rect x="450" y="157" width="5" height="10"/>
</g>

<g fill="#000000" fill-opacity="1" stroke="#000000" stroke-opacity="1" stroke-width="1" stroke-linecap="square" stroke-linejoin="bevel" transform="matrix(1,0,0,1,32,0)"
font-family="Segoe UI" font-size="9" font-weight="400" font-style="normal" 
>
<polyline fill="none" vector-effect="none" points="455,156 455,166 " />
<rect x="454" y="161" width="2" height="5"/>
<polyline fill="none" vector-effect="none" points="463,156 463,166 " />
<rect x="462" y="161" width="2" height="5"/>
<polyline fill="none" vector-effect="none" points="468,156 468,166 " />
<polyline fill="none" vector-effect="none" points="474,156 474,166 " />
<rect x="473" y="161" width="2" height="5"/>
<polyline fill="none" vector-effect="none" points="481,156 481,166 " />
<rect x="480" y="161" width="2" height="5"/>
<polyline fill="none" vector-effect="none" points="489,156 489,166 " />
<rect x="488" y="161" width="2" height="5"/>
<polyline fill="none" vector-effect="none" points="494,156 494,166 " />
</g>

<g fill="#a0a0a4" fill-opacity="1" stroke="none" transform="matrix(1,0,0,1,32,0)"
font-family="Segoe UI" font-size="9" font-weight="400" font-style="normal" 
>
<rect x="495" y="157" width="5" height="10"/>
</g>

<g fill="#000000" fill-opacity="1" stroke="#000000" stroke-opacity="1" stroke-width="1" stroke-linecap="square" stroke-linejoin="bevel" transform="matrix(1,0,0,1,32,0)"
font-family="Segoe UI" font-size="9" font-weight="400" font-style="normal" 
>
<polyline fill="none" vector-effect="none" points="500,156 500,166 " />
<rect x="499" y="161" width="2" height="5"/>
<polyline fill="none" vector-effect="none" points="508,156 508,166 " />
<rect x="507" y="161" width="2" height="5"/>
<polyline fill="none" vector-effect="none" points="513,156 513,166 " />
<polyline fill="none" vector-effect="none" points="519,156 519,166 " />
<rect x="518" y="161" width="2" height="5"/>
<polyline fill="none" vector-effect="none" points="527,156 527,166 " />
<rect x="526" y="161" width="2" height="5"/>
<polyline fill="none" vector-effect="none" points="534,156 534,166 " />
<rect x="533" y="161" width="2" height="5"/>
<polyline fill="none" vector-effect="none" points="540,156 540,166 " />
</g>

<g fill="#a0a0a4" fill-opacity="1" stroke="none" transform="matrix(1,0,0,1,32,0)"
font-family="Segoe UI" font-size="9" font-weight="400" font-style="normal" 
>
<rect x="541" y="157" width="4" height="10"/>
</g>

<g fill="#000000" fill-opacity="1" stroke="#000000" stroke-opacity="1" stroke-width="1" stroke-linecap="square" stroke-linejoin="bevel" transform="matrix(1,0,0,1,32,0)"
font-family="Segoe UI" font-size="9" font-weight="400" font-style="normal" 
>
<polyline fill="none" vector-effect="none" points="545,156 545,166 " />
<rect x="544" y="161" width="2" height="5"/>
<polyline fill="none" vector-effect="none" points="553,156 553,166 " />
<rect x="552" y="161" width="2" height="5"/>
<polyline fill="none" vector-effect="none" points="558,156 558,166 " />
<polyline fill="none" vector-effect="none" points="564,156 564,166 " />
<rect x="563" y="161" width="2" height="5"/>
<polyline fill="none" vector-effect="none" points="572,156 572,166 " />
<rect x="571" y="161" width="2" height="5"/>
<polyline fill="none" vector-effect="none" points="579,156 579,166 " />
<rect x="578" y="161" width="2" height="5"/>
<polyline fill="none" vector-effect="none" points="585,156 585,166 " />
</g>

<g fill="#a0a0a4" fill-opacity="1" stroke="none" transform="matrix(1,0,0,1,32,0)"
font-family="Segoe UI" font-size="9" font-weight="400" font-style="normal" 
>
<rect x="586" y="157" width="5" height="10"/>
</g>

<g fill="#000000" fill-opacity="1" stroke="#000000" stroke-opacity="1" stroke-width="1" stroke-linecap="square" stroke-linejoin="bevel" transform="matrix(1,0,0,1,32,0)"
font-family="Segoe UI" font-size="9" font-weight="400" font-style="normal" 
>
<polyline fill="none" vector-effect="none" points="591,156 591,166 " />
<rect x="590" y="161" width="2" height="5"/>
<polyline fill="none" vector-effect="none" points="598,156 598,166 " />
<rect x="597" y="161" width="2" height="5"/>
<polyline fill="none" vector-effect="none" points="604,156 604,166 " />
<polyline fill="none" vector-effect="none" points="609,156 609,166 " />
<rect x="608" y="161" width="2" height="5"/>
<polyline fill="none" vector-effect="none" points="617,156 617,166 " />
<rect x="616" y="161" width="2" height="5"/>
<polyline fill="none" vector-effect="none" points="624,156 624,166 " />
<rect x="623" y="161" width="2" height="5"/>
<polyline fill="none" vector-effect="none" points="630,156 630,166 " />
</g>

<g fill="#a0a0a4" fill-opacity="1" stroke="none" transform="matrix(1,0,0,1,32,0)"
font-family="Segoe UI" font-size="9" font-weight="400" font-style="normal" 
>
<rect x="631" y="157" width="5" height="10"/>
</g>

<g fill="#000000" fill-opacity="1" stroke="#000000" stroke-opacity="1" stroke-width="1" stroke-linecap="square" stroke-linejoin="bevel" transform="matrix(1,0,0,1,32,0)"
font-family="Segoe UI" font-size="9" font-weight="400" font-style="normal" 
>
<polyline fill="none" vector-effect="none" points="636,156 636,166 " />
<rect x="635" y="161" width="2" height="5"/>
<polyline fill="none" vector-effect="none" points="643,156 643,166 " />
<rect x="642" y="161" width="2" height="5"/>
<polyline fill="none" vector-effect="none" points="649,156 649,166 " />
<polyline fill="none" vector-effect="none" points="654,156 654,166 " />
<rect x="653" y="161" width="2" height="5"/>
<polyline fill="none" vector-effect="none" points="29,167 202,167 " />
<text fill="#000000" fill-opacity="1" stroke="none" xml:space="preserve" x="187" y="182" font-family="Segoe UI" font-size="9" font-weight="400" font-style="normal" 
 >Hz</text>
<polyline fill="none" vector-effect="none" points="202,167 897,167 " />
<polyline fill="none" vector-effect="none" points="227,167 227,199 " />
<text fill="#000000" fill-opacity="1" stroke="none" xml:space="preserve" x="232" y="182" font-family="Segoe UI" font-size="9" font-weight="400" font-style="normal" 
 >16</text>
<polyline fill="none" vector-effect="none" points="255,167 255,199 " />
<text fill="#000000" fill-opacity="1" stroke="none" xml:space="preserve" x="260" y="182" font-family="Segoe UI" font-size="9" font-weight="400" font-style="normal" 
 >25</text>
<polyline fill="none" vector-effect="none" points="285,167 285,199 " />
<text fill="#000000" fill-opacity="1" stroke="none" xml:space="preserve" x="290" y="182" font-family="Segoe UI" font-size="9" font-weight="400" font-style="normal" 
 >40</text>
<polyline fill="none" vector-effect="none" points="314,167 314,199 " />
<text fill="#000000" fill-opacity="1" stroke="none" xml:space="preserve" x="319" y="182" font-family="Segoe UI" font-size="9" font-weight="400" font-style="normal" 
 >63</text>
<polyline fill="none" vector-effect="none" points="344,167 344,199 " />
<text fill="#000000" fill-opacity="1" stroke="none" xml:space="preserve" x="349" y="182" font-family="Segoe UI" font-size="9" font-weight="400" font-style="normal" 
 >100</text>
<polyline fill="none" vector-effect="none" points="374,167 374,199 " />
<text fill="#000000" fill-opacity="1" stroke="none" xml:space="preserve" x="379" y="182" font-family="Segoe UI" font-size="9" font-weight="400" font-style="normal" 
 >160</text>
<polyline fill="none" vector-effect="none" points="403,167 403,199 " />
<text fill="#000000" fill-opacity="1" stroke="none" xml:space="preserve" x="408" y="182" font-family="Segoe UI" font-size="9" font-weight="400" font-style="normal" 
 >250</text>
<polyline fill="none" vector-effect="none" points="434,167 434,199 " />
<text fill="#000000" fill-opacity="1" stroke="none" xml:space="preserve" x="439" y="182" font-family="Segoe UI" font-size="9" font-weight="400" font-style="normal" 
 >400</text>
<polyline fill="none" vector-effect="none" points="463,167 463,199 " />
<text fill="#000000" fill-opacity="1" stroke="none" xml:space="preserve" x="468" y="182" font-family="Segoe UI" font-size="9" font-weight="400" font-style="normal" 
 >630</text>
<polyline fill="none" vector-effect="none" points="494,167 494,199 " />
<text fill="#000000" fill-opacity="1" stroke="none" xml:space="preserve" x="499" y="182" font-family="Segoe UI" font-size="9" font-weight="400" font-style="normal" 
 >1000</text>
<polyline fill="none" vector-effect="none" points="524,167 524,199 " />
<text fill="#000000" fill-opacity="1" stroke="none" xml:space="preserve" x="529" y="182" font-family="Segoe UI" font-size="9" font-weight="400" font-style="normal" 
 >1600</text>
<polyline fill="none" vector-effect="none" points="584,167 584,199 " />
<text fill="#000000" fill-opacity="1" stroke="none" xml:space="preserve" x="589" y="182" font-family="Segoe UI" font-size="9" font-weight="400" font-style="normal" 
 >4000</text>
<polyline fill="none" vector-effect="none" points="643,167 643,199 " />
<text fill="#000000" fill-opacity="1" stroke="none" xml:space="preserve" x="648" y="182" font-family="Segoe UI" font-size="9" font-weight="400" font-style="normal" 
 >1e+04</text>
<polyline fill="none" vector-effect="none" points="695,167 695,199 " />
<text fill="#000000" fill-opacity="1" stroke="none" xml:space="preserve" x="700" y="182" font-family="Segoe UI" font-size="9" font-weight="400" font-style="normal" 
 >2.5e+04</text>
</g>

<g fill="none" stroke="#000000" stroke-opacity="1" stroke-width="1" stroke-linecap="square" stroke-linejoin="bevel" transform="matrix(1,0,0,1,32,0)"
font-family="Segoe UI" font-size="9" font-weight="400" font-style="normal" 
>
</g>

<g fill="none" stroke="#000000" stroke-opacity="1" stroke-width="1" stroke-linecap="square" stroke-linejoin="bevel" transform="matrix(1,0,0,1,0,0)"
font-family="Segoe UI" font-size="9" font-weight="400" font-style="normal" 
>
</g>

<g fill="#ffffff" fill-opacity="1" stroke="#000000" stroke-opacity="1" stroke-width="1" stroke-linecap="square" stroke-linejoin="bevel" transform="matrix(1,0,0,1,0,0)"
font-family="Segoe UI" font-size="9" font-weight="400" font-style="normal" 
>
<rect x="0" y="-1" width="32" height="190"/>
</g>

<g fill="none" stroke="#000000" stroke-opacity="1" stroke-width="1" stroke-linecap="square" stroke-linejoin="bevel" transform="matrix(1,0,0,1,0,0)"
font-family="Segoe UI" font-size="9" font-weight="400" font-style="normal" 
>
<text fill="#000000" fill-opacity="1" stroke="none" xml:space="preserve" x="8" y="150" font-family="Segoe UI" font-size="9" font-weight="400" font-style="normal" 
 >-80</text>
<polyline fill="none" vector-effect="none" points="25,145 32,145 " />
<text fill="#000000" fill-opacity="1" stroke="none" xml:space="preserve" x="8" y="135" font-family="Segoe UI" font-size="9" font-weight="400" font-style="normal" 
 >-70</text>
<polyline fill="none" vector-effect="none" points="25,130 32,130 " />
<text fill="#000000" fill-opacity="1" stroke="none" xml:space="preserve" x="8" y="119" font-family="Segoe UI" font-size="9" font-weight="400" font-style="normal" 
 >-60</text>
<polyline fill="none" vector-effect="none" points="25,114 32,114 " />
<text fill="#000000" fill-opacity="1" stroke="none" xml:space="preserve" x="8" y="104" font-family="Segoe UI" font-size="9" font-weight="400" font-style="normal" 
 >-50</text>
<polyline fill="none" vector-effect="none" points="25,99 32,99 " />
<text fill="#000000" fill-opacity="1" stroke="none" xml:space="preserve" x="8" y="88" font-family="Segoe UI" font-size="9" font-weight="400" font-style="normal" 
 >-40</text>
<polyline fill="none" vector-effect="none" points="25,83 32,83 " />
<text fill="#000000" fill-opacity="1" stroke="none" xml:space="preserve" x="8" y="72" font-family="Segoe UI" font-size="9" font-weight="400" font-style="normal" 
 >-30</text>
<polyline fill="none" vector-effect="none" points="25,67 32,67 " />
<text fill="#000000" fill-opacity="1" stroke="none" xml:space="preserve" x="8" y="57" font-family="Segoe UI" font-size="9" font-weight="400" font-style="normal" 
 >-20</text>
<polyline fill="none" vector-effect="none" points="25,52 32,52 " />
<text fill="#000000" fill-opacity="1" stroke="none" xml:space="preserve" x="8" y="41" font-family="Segoe UI" font-size="9" font-weight="400" font-style="normal" 
 >-10</text>
<polyline fill="none" vector-effect="none" points="25,36 32,36 " />
<text fill="#000000" fill-opacity="1" stroke="none" xml:space="preserve" x="7" y="25" font-family="Segoe UI" font-size="9" font-weight="400" font-style="normal" 
 >0dB</text>
<polyline fill="none" vector-effect="none" points="25,20 32,20 " />
</g>

<g fill="none" stroke="#000000" stroke-opacity="1" stroke-width="1" stroke-linecap="square" stroke-linejoin="bevel" transform="matrix(1,0,0,1,0,0)"
font-family="Segoe UI" font-size="9" font-weight="400" font-style="normal" 
>
</g>
</g>
</svg>
