<?xml version="1.0" encoding="UTF-8" standalone="no"?>
<svg width="233.892mm" height="66.675mm"
 viewBox="0 0 663 189"
 xmlns="http://www.w3.org/2000/svg" xmlns:xlink="http://www.w3.org/1999/xlink"  version="1.2" baseProfile="tiny">
<title>Exported image from Sonic Visualiser</title>
<desc>Generated with Qt</desc>
<defs>
</defs>
<g fill="none" stroke="black" stroke-width="1" fill-rule="evenodd" stroke-linecap="square" stroke-linejoin="bevel" >

<g fill="#ffffff" fill-opacity="1" stroke="#ffffff" stroke-opacity="1" stroke-width="1" stroke-linecap="square" stroke-linejoin="bevel" transform="matrix(1,0,0,1,0,0)"
font-family="Segoe UI" font-size="9" font-weight="400" font-style="normal" 
>
<rect x="32" y="0" width="695" height="189"/>
</g>

<g fill="none" stroke="#000000" stroke-opacity="1" stroke-width="1" stroke-linecap="square" stroke-linejoin="bevel" transform="matrix(1,0,0,1,0,0)"
font-family="Segoe UI" font-size="9" font-weight="400" font-style="normal" 
>
</g>

<g fill="none" stroke="#000000" stroke-opacity="1" stroke-width="1" stroke-linecap="square" stroke-linejoin="bevel" transform="matrix(1,0,0,1,32,0)"
font-family="Segoe UI" font-size="9" font-weight="400" font-style="normal" 
>
</g>

<g fill="none" stroke="#f0f0f0" stroke-opacity="1" stroke-width="1" stroke-linecap="square" stroke-linejoin="bevel" transform="matrix(1,0,0,1,32,0)"
font-family="Segoe UI" font-size="9" font-weight="400" font-style="normal" 
>
<polyline fill="none" vector-effect="none" points="0,143 695,143 " />
<polyline fill="none" vector-effect="none" points="0,128 695,128 " />
<polyline fill="none" vector-effect="none" points="0,113 695,113 " />
<polyline fill="none" vector-effect="none" points="0,98 695,98 " />
<polyline fill="none" vector-effect="none" points="0,82 695,82 " />
<polyline fill="none" vector-effect="none" points="0,67 695,67 " />
<polyline fill="none" vector-effect="none" points="0,52 695,52 " />
<polyline fill="none" vector-effect="none" points="0,37 695,37 " />
<polyline fill="none" vector-effect="none" points="0,21 695,21 " />
</g>

<g fill="none" stroke="#ff9632" stroke-opacity="1" stroke-width="1" stroke-linecap="square" stroke-linejoin="bevel" transform="matrix(1,0,0,1,32,0)"
font-family="Segoe UI" font-size="9" font-weight="400" font-style="normal" 
>
<path vector-effect="none" fill-rule="evenodd" d="M29,85.5759 L202.996,78.5318 L245.852,74.48 L271.48,81.3587 L289.824,77.3373 L304.121,77.4638 L315.837,74.9302 L325.764,78.6271 L334.376,82.5215 L341.982,85.4557 L348.791,74.597 L354.956,69.6667 L360.587,69.9582 L365.77,75.7784 L370.57,83.3114 L375.041,85.9389 L379.225,89.3893 L383.156,93.7152 L386.863,84.9056 L390.371,84.5253 L393.699,85.2844 L396.866,80.4284 L399.886,81.5073 L402.772,83.765 L405.535,101.042 L408.186,83.632 L410.733,83.4409 L413.185,88.3854 L415.547,88.0989 L417.827,86.3611 L420.03,86.1528 L422.16,84.0383 L424.223,85.4966 L426.223,90.2838 L428.163,84.5635 L430.047,91.0169 L431.878,89.4886 L433.659,87.7682 L435.393,96.5191 L437.082,88.8366 L438.728,96.364 L440.333,88.2925 L441.9,91.2939 L443.43,93.9901 L444.925,93.3836 L446.386,95.0613 L447.816,99.1568 L449.214,89.9206 L450.583,87.7566 L451.924,92.0521 L453.238,99.0119 L454.526,96.2196 L455.789,103.899 L457.028,98.1971 L458.244,100.145 L459.438,98.1382 L460.61,95.0809 L461.761,93.2855 L462.893,89.4633 L464.005,92.3584 L465.098,93.471 L466.173,86.7207 L467.231,89.4956 L468.272,106.707 L469.297,94.6306 L470.305,97.8154 L471.299,93.7458 L472.277,94.4058 L473.241,101.955 L474.191,96.98 L475.127,101.613 L476.05,95.9317 L476.96,97.4264 L477.858,103.137 L478.743,98.9055 L479.617,100.094 L481.329,100.57 L481.329,99.977 M481.329,100.57 L482.169,92.6519 L482.998,94.5931 L483.816,94.3635 L484.625,94.7629 L486.212,107.843 L486.212,93.9172 M486.212,107.843 L486.991,106.008 L487.762,98.3591 L489.275,92.3419 L489.275,91.8794 M489.275,92.3419 L490.019,98.5152 L490.754,99.123 L492.201,93.3391 L492.201,92.3516 M492.201,93.3391 L492.912,96.4155 L494.312,100.49 L494.312,97.4599 M494.312,100.49 L495,93.9651 L495.682,96.6525 L497.024,96.1884 L497.024,93.5239 M497.024,96.1884 L497.685,96.5195 L498.987,103.971 L498.987,99.3557 M498.987,103.971 L500.263,95.0338 L500.263,90.6835 M500.263,95.0338 L500.892,92.5375 L502.132,100.865 L502.132,96.9591 M502.132,100.865 L502.743,96.6707 L503.948,103.846 L503.948,99.7234 M503.948,103.846 L505.132,97.3268 L505.132,95.3414 M505.132,97.3268 L505.716,96.4475 L506.868,100.736 L506.868,95.7215 M506.868,100.736 L508,99.592 L508,99.3475 M508,99.592 L509.113,98.8603 L509.113,96.0225 M509.113,98.8603 L510.207,107.177 L510.207,102.877 M510.207,107.177 L510.747,98.3103 L511.814,112.043 L511.814,101.389 M511.814,112.043 L512.864,100.562 L512.864,97.7243 M512.864,100.562 L513.897,98.3907 L513.897,97.3485 M513.897,98.3907 L514.914,98.9189 L514.914,93.0188 M514.914,98.9189 L515.916,100.474 L515.916,92.5503 M515.916,100.474 L516.902,108.717 L516.902,103.954 M516.902,108.717 L517.874,102.832 L517.874,100.313 M517.874,102.832 L518.831,97.7106 L518.831,97.5107 M518.831,97.7106 L519.775,97.2872 L519.775,96.1345 M519.775,97.2872 L521.165,100.722 L521.165,97.7828 M521.165,100.722 L522.076,96.7428 L522.076,96.0144 M522.076,96.7428 L522.974,96.7325 L522.974,94.7582 M522.974,96.7325 L523.859,109.915 L523.859,101.662 M523.859,109.915 L525.166,99.3382 L525.166,96.3939 M525.166,99.3382 L526.022,91.1612 L526.022,90.572 M526.022,91.1612 L526.868,104.535 L526.868,97.3394 M526.868,104.535 L528.116,101.485 L528.116,95.9181 M528.116,101.485 L528.935,98.7978 L528.935,98.2488 M528.935,98.7978 L530.144,102.895 L530.144,97.912 M530.144,102.895 L530.938,109.464 L530.938,98.2864 M530.938,109.464 L532.112,104.422 L532.112,100.312 M532.112,104.422 L532.882,106.176 L532.882,101.679 M532.882,106.176 L534.021,104.693 L534.021,98.6279 M534.021,104.693 L535.14,101.398 L535.14,98.6296 M535.14,101.398 L535.876,103.064 L535.876,100.044 M535.876,103.064 L536.964,101.493 L536.964,100.479 M536.964,101.493 L538.035,101.818 L538.035,99.0995 M538.035,101.818 L539.088,102.144 L539.088,95.3333 M539.088,102.144 L540.124,107.777 L540.124,101.681 M540.124,107.777 L541.144,107.056 L541.144,99.9556 M541.144,107.056 L542.148,107.111 L542.148,98.1098 M542.148,107.111 L543.137,106.937 L543.137,98.396 M543.137,106.937 L544.112,105.939 L544.112,100.884 M544.112,105.939 L545.071,112.925 L545.071,102.483 M545.071,112.925 L546.017,106.217 L546.017,105.186 M546.017,106.217 L546.95,101.596 L546.95,96.0697 M546.95,101.596 L547.869,114.32 L547.869,109.219 M547.869,114.32 L549.075,107.233 L549.075,99.3541 M549.075,107.233 L549.965,104.105 L549.965,98.532 M549.965,104.105 L551.133,102.615 L551.133,100.706 M551.133,102.615 L551.995,108.018 L551.995,103.567 M551.995,108.018 L553.128,109.367 L553.128,99.5295 M553.128,109.367 L553.964,110.965 L553.964,104.821 M553.964,110.965 L555.063,114.339 L555.063,105.76 M555.063,114.339 L555.876,107.994 L555.876,99.9793 M555.876,107.994 L556.943,111.814 L556.943,99.4432 M556.943,111.814 L557.994,114.997 L557.994,98.6933 M557.994,114.997 L559.027,107.501 L559.027,97.7492 M559.027,107.501 L560.045,114.728 L560.045,103.804 M560.045,114.728 L561.046,107.659 L561.046,103.198 M561.046,107.659 L562.033,104.523 L562.033,100.056 M562.033,104.523 L563.005,107.119 L563.005,103.946 M563.005,107.119 L563.963,112.026 L563.963,106.666 M563.963,112.026 L564.906,106.318 L564.906,104.652 M564.906,106.318 L566.067,105.614 L566.067,101.799 M566.067,105.614 L566.981,105.855 L566.981,103.659 M566.981,105.855 L568.106,114.156 L568.106,103.469 M568.106,114.156 L568.992,116.133 L568.992,106.067 M568.992,116.133 L570.083,107.878 L570.083,103.237 M570.083,107.878 L570.942,110.306 L570.942,104.61 M570.942,110.306 L572.001,125.064 L572.001,103.141 M572.001,125.064 L573.043,111.177 L573.043,103.282 M573.043,111.177 L574.069,114.006 L574.069,101.977 M574.069,114.006 L575.078,117.096 L575.078,106.393 M575.078,117.096 L576.073,111.323 L576.073,107.601 M576.073,111.323 L577.052,116.826 L577.052,106.973 M577.052,116.826 L578.017,116.131 L578.017,102.586 M578.017,116.131 L578.968,114.839 L578.968,105.605 M578.968,114.839 L580.09,115.937 L580.09,104.141 M580.09,115.937 L581.011,113.67 L581.011,103.289 M581.011,113.67 L581.92,115.875 L581.92,105.775 M581.92,115.875 L582.993,111.259 L582.993,105.671 M582.993,111.259 L584.049,108.205 L584.049,104.257 M584.049,108.205 L584.916,120.333 L584.916,102.385 M584.916,120.333 L585.942,111.624 L585.942,108.151 M585.942,111.624 L586.952,111.896 L586.952,104.018 M586.952,111.896 L587.946,114.733 L587.946,109.824 M587.946,114.733 L588.925,114.354 L588.925,104.354 M588.925,114.354 L590.05,117.207 L590.05,106.265 M590.05,117.207 L590.998,117.268 L590.998,103.742 M590.998,117.268 L591.933,114.433 L591.933,106.651 M591.933,114.433 L593.007,118.395 L593.007,108.99 M593.007,118.395 L594.063,118.046 L594.063,105.764 M594.063,118.046 L594.955,130.377 L594.955,104.663 M594.955,130.377 L595.981,120.609 L595.981,109.134 M595.981,120.609 L596.991,114.409 L596.991,105.199 M596.991,114.409 L597.985,124.542 L597.985,103.662 M597.985,124.542 L598.964,112.848 L598.964,106.917 M598.964,112.848 L600.066,119.564 L600.066,105.252 M600.066,119.564 L601.015,116.279 L601.015,103.409 M601.015,116.279 L601.95,122.967 L601.95,110.237 M601.95,122.967 L603.002,119.568 L603.002,108.301 M603.002,119.568 L604.038,121.09 L604.038,106.624 M604.038,121.09 L605.058,113.501 L605.058,106.884 M605.058,113.501 L606.062,120.421 L606.062,107.151 M606.062,120.421 L607.05,111.967 L607.05,107.052 M607.05,111.967 L608.024,113.7 L608.024,107.636 M608.024,113.7 L608.984,114.072 L608.984,108.149 M608.984,114.072 L610.047,124.478 L610.047,104.579 M610.047,124.478 L610.977,116.706 L610.977,105.892 M610.977,116.706 L612.008,120.963 L612.008,103.634 M612.008,120.963 L613.023,117.003 L613.023,105.864 M613.023,117.003 L614.023,120.537 L614.023,104.689 M614.023,120.537 L615.007,119.285 L615.007,105.655 M615.007,119.285 L615.977,121.23 L615.977,103.969 M615.977,121.23 L617.037,113.374 L617.037,106.526 M617.037,113.374 L617.977,125.711 L617.977,107.991 M617.977,125.711 L619.006,126.882 L619.006,105.117 M619.006,126.882 L620.019,116.277 L620.019,106.684 M620.019,116.277 L621.017,120.087 L621.017,106.667 M621.017,120.087 L621.999,116.558 L621.999,105.281 M621.999,116.558 L622.967,120.242 L622.967,108.149 M622.967,120.242 L624.015,128.934 L624.015,104.807 M624.015,128.934 L624.953,119.71 L624.953,107.88 M624.953,119.71 L625.97,121.559 L625.97,103.999 M625.97,121.559 L626.972,123.783 L626.972,109.208 M626.972,123.783 L627.958,120.65 L627.958,105.411 M627.958,120.65 L629.017,124.807 L629.017,104.813 M629.017,124.807 L629.973,119.204 L629.973,107.686 M629.973,119.204 L631,117.028 L631,106.855 M631,117.028 L632.011,123.714 L632.011,106.784 M632.011,123.714 L633.007,124.491 L633.007,106.706 M633.007,124.491 L633.987,117.942 L633.987,108.429 M633.987,117.942 L635.033,129.017 L635.033,104.729 M635.033,129.017 L635.984,120.531 L635.984,105.424 M635.984,120.531 L636.999,122.721 L636.999,108.307 M636.999,122.721 L637.998,117.404 L637.998,105.666 M637.998,117.404 L638.982,127.933 L638.982,107.942 M638.982,127.933 L640.025,115.494 L640.025,108.666 M640.025,115.494 L640.979,118.088 L640.979,106.594 M640.979,118.088 L641.991,115.973 L641.991,108.966 M641.991,115.973 L642.988,122.471 L642.988,107.642 M642.988,122.471 L643.969,120.419 L643.969,109.344 M643.969,120.419 L645.005,118.86 L645.005,108.246 M645.005,118.86 L646.024,125.053 L646.024,109.569 M646.024,125.053 L647.028,123.352 L647.028,107.798 M647.028,123.352 L648.016,118.228 L648.016,109.713 M648.016,118.228 L648.989,118.436 L648.989,107.833 M648.989,118.436 L650.012,117.044 L650.012,105.265 M650.012,117.044 L651.019,124.426 L651.019,107.146 M651.019,124.426 L652.011,115.847 L652.011,107.26 M652.011,115.847 L652.987,123.776 L652.987,106.477 M652.987,123.776 L654.009,122.627 L654.009,108.371 M654.009,122.627 L655.015,126.339 L655.015,104.891 M655.015,126.339 L656.006,117.193 L656.006,106.907 M656.006,117.193 L656.982,129.933 L656.982,106.526 M656.982,129.933 L658,127.503 L658,107.354 M658,127.503 L659.002,128.883 L659.002,106.899 M659.002,128.883 L659.989,121.66 L659.989,107.598 M659.989,121.66 L661.015,128.992 L661.015,105.345 M661.015,128.992 L662.024,125.026 L662.024,106.279 M662.024,125.026 L663.019,128.436 L663.019,105.53 M663.019,128.436 L663.998,122.111 L663.998,105.213 M663.998,122.111 L665.014,127.849 L665.014,106.674 M665.014,127.849 L666.013,124.997 L666.013,108.856 M666.013,124.997 L666.998,127.765 L666.998,108.205 M666.998,127.765 L668.016,125.955 L668.016,107.162 M668.016,125.955 L669.018,120.767 L669.018,107.61 M669.018,120.767 L670.006,119.513 L670.006,107.06 M670.006,119.513 L670.978,125.314 L670.978,109.146 M670.978,125.314 L671.982,122.691 L671.982,107.28 M671.982,122.691 L673.014,120.794 L673.014,106.098 M673.014,120.794 L673.987,127.113 L673.987,110.958 M673.987,127.113 L674.989,120.389 L674.989,107.71 M674.989,120.389 L676.018,120.736 L676.018,108.951 M676.018,120.736 L676.989,123.17 L676.989,108.598 M676.989,123.17 L677.988,120.493 L677.988,108.01 M677.988,120.493 L679.011,132.638 L679.011,106.709 M679.011,132.638 L680.019,125.51 L680.019,105.148 M680.019,125.51 L681.012,117.092 L681.012,106.745 M681.012,117.092 L681.99,121.647 L681.99,105.748 M681.99,121.647 L682.991,123.415 L682.991,109.092 M682.991,123.415 L684.015,123.267 L684.015,108.016 M684.015,123.267 L684.986,123.397 L684.986,105.698 M684.986,123.397 L686.016,124.55 L686.016,107.081 M686.016,124.55 L686.994,127.587 L686.994,111.059 M686.994,127.587 L687.993,126.248 L687.993,106.907 M687.993,126.248 L689.011,123.64 L689.011,105.7 M689.011,123.64 L690.014,120.994 L690.014,108.589 M690.014,120.994 L691.002,122.843 L691.002,108.589 M691.002,122.843 L692.008,132.346 L692.008,109.374 M692.008,132.346 L692.999,132.473 L692.999,113.646 M692.999,132.473 L694.007,129.193 L694.007,115.086 M694.007,129.193 L694.968,141.775 L694.968,117.148 M694.968,141.775"/>
</g>

<g fill="none" stroke="#000000" stroke-opacity="1" stroke-width="1" stroke-linecap="square" stroke-linejoin="bevel" transform="matrix(1,0,0,1,32,0)"
font-family="Segoe UI" font-size="9" font-weight="400" font-style="normal" 
>
<polyline fill="none" vector-effect="none" points="29,156 723,156 " />
</g>

<g fill="#000000" fill-opacity="1" stroke="#000000" stroke-opacity="1" stroke-width="1" stroke-linecap="square" stroke-linejoin="bevel" transform="matrix(1,0,0,1,32,0)"
font-family="Segoe UI" font-size="9" font-weight="400" font-style="normal" 
>
<polyline fill="none" vector-effect="none" points="186,156 186,166 " />
</g>

<g fill="#a0a0a4" fill-opacity="1" stroke="none" transform="matrix(1,0,0,1,32,0)"
font-family="Segoe UI" font-size="9" font-weight="400" font-style="normal" 
>
<rect x="185" y="157" width="5" height="10"/>
</g>

<g fill="#000000" fill-opacity="1" stroke="#000000" stroke-opacity="1" stroke-width="1" stroke-linecap="square" stroke-linejoin="bevel" transform="matrix(1,0,0,1,32,0)"
font-family="Segoe UI" font-size="9" font-weight="400" font-style="normal" 
>
<polyline fill="none" vector-effect="none" points="190,156 190,166 " />
<rect x="189" y="161" width="2" height="5"/>
<polyline fill="none" vector-effect="none" points="197,156 197,166 " />
<rect x="196" y="161" width="2" height="5"/>
<polyline fill="none" vector-effect="none" points="202,156 202,166 " />
<polyline fill="none" vector-effect="none" points="207,156 207,166 " />
<rect x="206" y="161" width="2" height="5"/>
<polyline fill="none" vector-effect="none" points="214,156 214,166 " />
<rect x="213" y="161" width="2" height="5"/>
<polyline fill="none" vector-effect="none" points="222,156 222,166 " />
<rect x="221" y="161" width="2" height="5"/>
<polyline fill="none" vector-effect="none" points="227,156 227,166 " />
</g>

<g fill="#a0a0a4" fill-opacity="1" stroke="none" transform="matrix(1,0,0,1,32,0)"
font-family="Segoe UI" font-size="9" font-weight="400" font-style="normal" 
>
<rect x="228" y="157" width="4" height="10"/>
</g>

<g fill="#000000" fill-opacity="1" stroke="#000000" stroke-opacity="1" stroke-width="1" stroke-linecap="square" stroke-linejoin="bevel" transform="matrix(1,0,0,1,32,0)"
font-family="Segoe UI" font-size="9" font-weight="400" font-style="normal" 
>
<polyline fill="none" vector-effect="none" points="232,156 232,166 " />
<rect x="231" y="161" width="2" height="5"/>
<polyline fill="none" vector-effect="none" points="239,156 239,166 " />
<rect x="238" y="161" width="2" height="5"/>
<polyline fill="none" vector-effect="none" points="245,156 245,166 " />
<polyline fill="none" vector-effect="none" points="250,156 250,166 " />
<rect x="249" y="161" width="2" height="5"/>
<polyline fill="none" vector-effect="none" points="258,156 258,166 " />
<rect x="257" y="161" width="2" height="5"/>
<polyline fill="none" vector-effect="none" points="265,156 265,166 " />
<rect x="264" y="161" width="2" height="5"/>
<polyline fill="none" vector-effect="none" points="270,156 270,166 " />
</g>

<g fill="#a0a0a4" fill-opacity="1" stroke="none" transform="matrix(1,0,0,1,32,0)"
font-family="Segoe UI" font-size="9" font-weight="400" font-style="normal" 
>
<rect x="271" y="157" width="5" height="10"/>
</g>

<g fill="#000000" fill-opacity="1" stroke="#000000" stroke-opacity="1" stroke-width="1" stroke-linecap="square" stroke-linejoin="bevel" transform="matrix(1,0,0,1,32,0)"
font-family="Segoe UI" font-size="9" font-weight="400" font-style="normal" 
>
<polyline fill="none" vector-effect="none" points="276,156 276,166 " />
<rect x="275" y="161" width="2" height="5"/>
<polyline fill="none" vector-effect="none" points="283,156 283,166 " />
<rect x="282" y="161" width="2" height="5"/>
<polyline fill="none" vector-effect="none" points="289,156 289,166 " />
<polyline fill="none" vector-effect="none" points="294,156 294,166 " />
<rect x="293" y="161" width="2" height="5"/>
<polyline fill="none" vector-effect="none" points="302,156 302,166 " />
<rect x="301" y="161" width="2" height="5"/>
<polyline fill="none" vector-effect="none" points="309,156 309,166 " />
<rect x="308" y="161" width="2" height="5"/>
<polyline fill="none" vector-effect="none" points="315,156 315,166 " />
</g>

<g fill="#a0a0a4" fill-opacity="1" stroke="none" transform="matrix(1,0,0,1,32,0)"
font-family="Segoe UI" font-size="9" font-weight="400" font-style="normal" 
>
<rect x="316" y="157" width="4" height="10"/>
</g>

<g fill="#000000" fill-opacity="1" stroke="#000000" stroke-opacity="1" stroke-width="1" stroke-linecap="square" stroke-linejoin="bevel" transform="matrix(1,0,0,1,32,0)"
font-family="Segoe UI" font-size="9" font-weight="400" font-style="normal" 
>
<polyline fill="none" vector-effect="none" points="320,156 320,166 " />
<rect x="319" y="161" width="2" height="5"/>
<polyline fill="none" vector-effect="none" points="328,156 328,166 " />
<rect x="327" y="161" width="2" height="5"/>
<polyline fill="none" vector-effect="none" points="333,156 333,166 " />
<polyline fill="none" vector-effect="none" points="339,156 339,166 " />
<rect x="338" y="161" width="2" height="5"/>
<polyline fill="none" vector-effect="none" points="346,156 346,166 " />
<rect x="345" y="161" width="2" height="5"/>
<polyline fill="none" vector-effect="none" points="354,156 354,166 " />
<rect x="353" y="161" width="2" height="5"/>
<polyline fill="none" vector-effect="none" points="359,156 359,166 " />
</g>

<g fill="#a0a0a4" fill-opacity="1" stroke="none" transform="matrix(1,0,0,1,32,0)"
font-family="Segoe UI" font-size="9" font-weight="400" font-style="normal" 
>
<rect x="360" y="157" width="5" height="10"/>
</g>

<g fill="#000000" fill-opacity="1" stroke="#000000" stroke-opacity="1" stroke-width="1" stroke-linecap="square" stroke-linejoin="bevel" transform="matrix(1,0,0,1,32,0)"
font-family="Segoe UI" font-size="9" font-weight="400" font-style="normal" 
>
<polyline fill="none" vector-effect="none" points="365,156 365,166 " />
<rect x="364" y="161" width="2" height="5"/>
<polyline fill="none" vector-effect="none" points="373,156 373,166 " />
<rect x="372" y="161" width="2" height="5"/>
<polyline fill="none" vector-effect="none" points="378,156 378,166 " />
<polyline fill="none" vector-effect="none" points="384,156 384,166 " />
<rect x="383" y="161" width="2" height="5"/>
<polyline fill="none" vector-effect="none" points="391,156 391,166 " />
<rect x="390" y="161" width="2" height="5"/>
<polyline fill="none" vector-effect="none" points="399,156 399,166 " />
<rect x="398" y="161" width="2" height="5"/>
<polyline fill="none" vector-effect="none" points="404,156 404,166 " />
</g>

<g fill="#7f7fff" fill-opacity="1" stroke="none" transform="matrix(1,0,0,1,32,0)"
font-family="Segoe UI" font-size="9" font-weight="400" font-style="normal" 
>
<rect x="405" y="157" width="5" height="10"/>
</g>

<g fill="#000000" fill-opacity="1" stroke="#000000" stroke-opacity="1" stroke-width="1" stroke-linecap="square" stroke-linejoin="bevel" transform="matrix(1,0,0,1,32,0)"
font-family="Segoe UI" font-size="9" font-weight="400" font-style="normal" 
>
<polyline fill="none" vector-effect="none" points="410,156 410,166 " />
<rect x="409" y="161" width="2" height="5"/>
<polyline fill="none" vector-effect="none" points="418,156 418,166 " />
<rect x="417" y="161" width="2" height="5"/>
<polyline fill="none" vector-effect="none" points="423,156 423,166 " />
<polyline fill="none" vector-effect="none" points="429,156 429,166 " />
<rect x="428" y="161" width="2" height="5"/>
<polyline fill="none" vector-effect="none" points="436,156 436,166 " />
<rect x="435" y="161" width="2" height="5"/>
<polyline fill="none" vector-effect="none" points="444,156 444,166 " />
<rect x="443" y="161" width="2" height="5"/>
<polyline fill="none" vector-effect="none" points="449,156 449,166 " />
</g>

<g fill="#a0a0a4" fill-opacity="1" stroke="none" transform="matrix(1,0,0,1,32,0)"
font-family="Segoe UI" font-size="9" font-weight="400" font-style="normal" 
>
<rect x="450" y="157" width="5" height="10"/>
</g>

<g fill="#000000" fill-opacity="1" stroke="#000000" stroke-opacity="1" stroke-width="1" stroke-linecap="square" stroke-linejoin="bevel" transform="matrix(1,0,0,1,32,0)"
font-family="Segoe UI" font-size="9" font-weight="400" font-style="normal" 
>
<polyline fill="none" vector-effect="none" points="455,156 455,166 " />
<rect x="454" y="161" width="2" height="5"/>
<polyline fill="none" vector-effect="none" points="463,156 463,166 " />
<rect x="462" y="161" width="2" height="5"/>
<polyline fill="none" vector-effect="none" points="468,156 468,166 " />
<polyline fill="none" vector-effect="none" points="474,156 474,166 " />
<rect x="473" y="161" width="2" height="5"/>
<polyline fill="none" vector-effect="none" points="481,156 481,166 " />
<rect x="480" y="161" width="2" height="5"/>
<polyline fill="none" vector-effect="none" points="489,156 489,166 " />
<rect x="488" y="161" width="2" height="5"/>
<polyline fill="none" vector-effect="none" points="494,156 494,166 " />
</g>

<g fill="#a0a0a4" fill-opacity="1" stroke="none" transform="matrix(1,0,0,1,32,0)"
font-family="Segoe UI" font-size="9" font-weight="400" font-style="normal" 
>
<rect x="495" y="157" width="5" height="10"/>
</g>

<g fill="#000000" fill-opacity="1" stroke="#000000" stroke-opacity="1" stroke-width="1" stroke-linecap="square" stroke-linejoin="bevel" transform="matrix(1,0,0,1,32,0)"
font-family="Segoe UI" font-size="9" font-weight="400" font-style="normal" 
>
<polyline fill="none" vector-effect="none" points="500,156 500,166 " />
<rect x="499" y="161" width="2" height="5"/>
<polyline fill="none" vector-effect="none" points="508,156 508,166 " />
<rect x="507" y="161" width="2" height="5"/>
<polyline fill="none" vector-effect="none" points="513,156 513,166 " />
<polyline fill="none" vector-effect="none" points="519,156 519,166 " />
<rect x="518" y="161" width="2" height="5"/>
<polyline fill="none" vector-effect="none" points="527,156 527,166 " />
<rect x="526" y="161" width="2" height="5"/>
<polyline fill="none" vector-effect="none" points="534,156 534,166 " />
<rect x="533" y="161" width="2" height="5"/>
<polyline fill="none" vector-effect="none" points="540,156 540,166 " />
</g>

<g fill="#a0a0a4" fill-opacity="1" stroke="none" transform="matrix(1,0,0,1,32,0)"
font-family="Segoe UI" font-size="9" font-weight="400" font-style="normal" 
>
<rect x="541" y="157" width="4" height="10"/>
</g>

<g fill="#000000" fill-opacity="1" stroke="#000000" stroke-opacity="1" stroke-width="1" stroke-linecap="square" stroke-linejoin="bevel" transform="matrix(1,0,0,1,32,0)"
font-family="Segoe UI" font-size="9" font-weight="400" font-style="normal" 
>
<polyline fill="none" vector-effect="none" points="545,156 545,166 " />
<rect x="544" y="161" width="2" height="5"/>
<polyline fill="none" vector-effect="none" points="553,156 553,166 " />
<rect x="552" y="161" width="2" height="5"/>
<polyline fill="none" vector-effect="none" points="558,156 558,166 " />
<polyline fill="none" vector-effect="none" points="564,156 564,166 " />
<rect x="563" y="161" width="2" height="5"/>
<polyline fill="none" vector-effect="none" points="572,156 572,166 " />
<rect x="571" y="161" width="2" height="5"/>
<polyline fill="none" vector-effect="none" points="579,156 579,166 " />
<rect x="578" y="161" width="2" height="5"/>
<polyline fill="none" vector-effect="none" points="585,156 585,166 " />
</g>

<g fill="#a0a0a4" fill-opacity="1" stroke="none" transform="matrix(1,0,0,1,32,0)"
font-family="Segoe UI" font-size="9" font-weight="400" font-style="normal" 
>
<rect x="586" y="157" width="5" height="10"/>
</g>

<g fill="#000000" fill-opacity="1" stroke="#000000" stroke-opacity="1" stroke-width="1" stroke-linecap="square" stroke-linejoin="bevel" transform="matrix(1,0,0,1,32,0)"
font-family="Segoe UI" font-size="9" font-weight="400" font-style="normal" 
>
<polyline fill="none" vector-effect="none" points="591,156 591,166 " />
<rect x="590" y="161" width="2" height="5"/>
<polyline fill="none" vector-effect="none" points="598,156 598,166 " />
<rect x="597" y="161" width="2" height="5"/>
<polyline fill="none" vector-effect="none" points="604,156 604,166 " />
<polyline fill="none" vector-effect="none" points="609,156 609,166 " />
<rect x="608" y="161" width="2" height="5"/>
<polyline fill="none" vector-effect="none" points="617,156 617,166 " />
<rect x="616" y="161" width="2" height="5"/>
<polyline fill="none" vector-effect="none" points="624,156 624,166 " />
<rect x="623" y="161" width="2" height="5"/>
<polyline fill="none" vector-effect="none" points="630,156 630,166 " />
</g>

<g fill="#a0a0a4" fill-opacity="1" stroke="none" transform="matrix(1,0,0,1,32,0)"
font-family="Segoe UI" font-size="9" font-weight="400" font-style="normal" 
>
<rect x="631" y="157" width="5" height="10"/>
</g>

<g fill="#000000" fill-opacity="1" stroke="#000000" stroke-opacity="1" stroke-width="1" stroke-linecap="square" stroke-linejoin="bevel" transform="matrix(1,0,0,1,32,0)"
font-family="Segoe UI" font-size="9" font-weight="400" font-style="normal" 
>
<polyline fill="none" vector-effect="none" points="636,156 636,166 " />
<rect x="635" y="161" width="2" height="5"/>
<polyline fill="none" vector-effect="none" points="643,156 643,166 " />
<rect x="642" y="161" width="2" height="5"/>
<polyline fill="none" vector-effect="none" points="649,156 649,166 " />
<polyline fill="none" vector-effect="none" points="654,156 654,166 " />
<rect x="653" y="161" width="2" height="5"/>
<polyline fill="none" vector-effect="none" points="29,167 202,167 " />
<text fill="#000000" fill-opacity="1" stroke="none" xml:space="preserve" x="187" y="182" font-family="Segoe UI" font-size="9" font-weight="400" font-style="normal" 
 >Hz</text>
<polyline fill="none" vector-effect="none" points="202,167 897,167 " />
<polyline fill="none" vector-effect="none" points="227,167 227,199 " />
<text fill="#000000" fill-opacity="1" stroke="none" xml:space="preserve" x="232" y="182" font-family="Segoe UI" font-size="9" font-weight="400" font-style="normal" 
 >16</text>
<polyline fill="none" vector-effect="none" points="255,167 255,199 " />
<text fill="#000000" fill-opacity="1" stroke="none" xml:space="preserve" x="260" y="182" font-family="Segoe UI" font-size="9" font-weight="400" font-style="normal" 
 >25</text>
<polyline fill="none" vector-effect="none" points="285,167 285,199 " />
<text fill="#000000" fill-opacity="1" stroke="none" xml:space="preserve" x="290" y="182" font-family="Segoe UI" font-size="9" font-weight="400" font-style="normal" 
 >40</text>
<polyline fill="none" vector-effect="none" points="314,167 314,199 " />
<text fill="#000000" fill-opacity="1" stroke="none" xml:space="preserve" x="319" y="182" font-family="Segoe UI" font-size="9" font-weight="400" font-style="normal" 
 >63</text>
<polyline fill="none" vector-effect="none" points="344,167 344,199 " />
<text fill="#000000" fill-opacity="1" stroke="none" xml:space="preserve" x="349" y="182" font-family="Segoe UI" font-size="9" font-weight="400" font-style="normal" 
 >100</text>
<polyline fill="none" vector-effect="none" points="374,167 374,199 " />
<text fill="#000000" fill-opacity="1" stroke="none" xml:space="preserve" x="379" y="182" font-family="Segoe UI" font-size="9" font-weight="400" font-style="normal" 
 >160</text>
<polyline fill="none" vector-effect="none" points="403,167 403,199 " />
<text fill="#000000" fill-opacity="1" stroke="none" xml:space="preserve" x="408" y="182" font-family="Segoe UI" font-size="9" font-weight="400" font-style="normal" 
 >250</text>
<polyline fill="none" vector-effect="none" points="434,167 434,199 " />
<text fill="#000000" fill-opacity="1" stroke="none" xml:space="preserve" x="439" y="182" font-family="Segoe UI" font-size="9" font-weight="400" font-style="normal" 
 >400</text>
<polyline fill="none" vector-effect="none" points="463,167 463,199 " />
<text fill="#000000" fill-opacity="1" stroke="none" xml:space="preserve" x="468" y="182" font-family="Segoe UI" font-size="9" font-weight="400" font-style="normal" 
 >630</text>
<polyline fill="none" vector-effect="none" points="494,167 494,199 " />
<text fill="#000000" fill-opacity="1" stroke="none" xml:space="preserve" x="499" y="182" font-family="Segoe UI" font-size="9" font-weight="400" font-style="normal" 
 >1000</text>
<polyline fill="none" vector-effect="none" points="524,167 524,199 " />
<text fill="#000000" fill-opacity="1" stroke="none" xml:space="preserve" x="529" y="182" font-family="Segoe UI" font-size="9" font-weight="400" font-style="normal" 
 >1600</text>
<polyline fill="none" vector-effect="none" points="584,167 584,199 " />
<text fill="#000000" fill-opacity="1" stroke="none" xml:space="preserve" x="589" y="182" font-family="Segoe UI" font-size="9" font-weight="400" font-style="normal" 
 >4000</text>
<polyline fill="none" vector-effect="none" points="643,167 643,199 " />
<text fill="#000000" fill-opacity="1" stroke="none" xml:space="preserve" x="648" y="182" font-family="Segoe UI" font-size="9" font-weight="400" font-style="normal" 
 >1e+04</text>
<polyline fill="none" vector-effect="none" points="695,167 695,199 " />
<text fill="#000000" fill-opacity="1" stroke="none" xml:space="preserve" x="700" y="182" font-family="Segoe UI" font-size="9" font-weight="400" font-style="normal" 
 >2.5e+04</text>
</g>

<g fill="none" stroke="#000000" stroke-opacity="1" stroke-width="1" stroke-linecap="square" stroke-linejoin="bevel" transform="matrix(1,0,0,1,32,0)"
font-family="Segoe UI" font-size="9" font-weight="400" font-style="normal" 
>
</g>

<g fill="none" stroke="#000000" stroke-opacity="1" stroke-width="1" stroke-linecap="square" stroke-linejoin="bevel" transform="matrix(1,0,0,1,0,0)"
font-family="Segoe UI" font-size="9" font-weight="400" font-style="normal" 
>
</g>

<g fill="#ffffff" fill-opacity="1" stroke="#000000" stroke-opacity="1" stroke-width="1" stroke-linecap="square" stroke-linejoin="bevel" transform="matrix(1,0,0,1,0,0)"
font-family="Segoe UI" font-size="9" font-weight="400" font-style="normal" 
>
<rect x="0" y="-1" width="32" height="190"/>
</g>

<g fill="none" stroke="#000000" stroke-opacity="1" stroke-width="1" stroke-linecap="square" stroke-linejoin="bevel" transform="matrix(1,0,0,1,0,0)"
font-family="Segoe UI" font-size="9" font-weight="400" font-style="normal" 
>
<text fill="#000000" fill-opacity="1" stroke="none" xml:space="preserve" x="8" y="150" font-family="Segoe UI" font-size="9" font-weight="400" font-style="normal" 
 >-80</text>
<polyline fill="none" vector-effect="none" points="25,145 32,145 " />
<text fill="#000000" fill-opacity="1" stroke="none" xml:space="preserve" x="8" y="135" font-family="Segoe UI" font-size="9" font-weight="400" font-style="normal" 
 >-70</text>
<polyline fill="none" vector-effect="none" points="25,130 32,130 " />
<text fill="#000000" fill-opacity="1" stroke="none" xml:space="preserve" x="8" y="119" font-family="Segoe UI" font-size="9" font-weight="400" font-style="normal" 
 >-60</text>
<polyline fill="none" vector-effect="none" points="25,114 32,114 " />
<text fill="#000000" fill-opacity="1" stroke="none" xml:space="preserve" x="8" y="104" font-family="Segoe UI" font-size="9" font-weight="400" font-style="normal" 
 >-50</text>
<polyline fill="none" vector-effect="none" points="25,99 32,99 " />
<text fill="#000000" fill-opacity="1" stroke="none" xml:space="preserve" x="8" y="88" font-family="Segoe UI" font-size="9" font-weight="400" font-style="normal" 
 >-40</text>
<polyline fill="none" vector-effect="none" points="25,83 32,83 " />
<text fill="#000000" fill-opacity="1" stroke="none" xml:space="preserve" x="8" y="72" font-family="Segoe UI" font-size="9" font-weight="400" font-style="normal" 
 >-30</text>
<polyline fill="none" vector-effect="none" points="25,67 32,67 " />
<text fill="#000000" fill-opacity="1" stroke="none" xml:space="preserve" x="8" y="57" font-family="Segoe UI" font-size="9" font-weight="400" font-style="normal" 
 >-20</text>
<polyline fill="none" vector-effect="none" points="25,52 32,52 " />
<text fill="#000000" fill-opacity="1" stroke="none" xml:space="preserve" x="8" y="41" font-family="Segoe UI" font-size="9" font-weight="400" font-style="normal" 
 >-10</text>
<polyline fill="none" vector-effect="none" points="25,36 32,36 " />
<text fill="#000000" fill-opacity="1" stroke="none" xml:space="preserve" x="7" y="25" font-family="Segoe UI" font-size="9" font-weight="400" font-style="normal" 
 >0dB</text>
<polyline fill="none" vector-effect="none" points="25,20 32,20 " />
</g>

<g fill="none" stroke="#000000" stroke-opacity="1" stroke-width="1" stroke-linecap="square" stroke-linejoin="bevel" transform="matrix(1,0,0,1,0,0)"
font-family="Segoe UI" font-size="9" font-weight="400" font-style="normal" 
>
</g>
</g>
</svg>
