<?xml version="1.0" encoding="UTF-8" standalone="no"?>
<svg width="166.158mm" height="66.675mm"
 viewBox="0 0 471 189"
 xmlns="http://www.w3.org/2000/svg" xmlns:xlink="http://www.w3.org/1999/xlink"  version="1.2" baseProfile="tiny">
<title>Exported image from Sonic Visualiser</title>
<desc>Generated with Qt</desc>
<defs>
</defs>
<g fill="none" stroke="black" stroke-width="1" fill-rule="evenodd" stroke-linecap="square" stroke-linejoin="bevel" >

<g fill="#ffffff" fill-opacity="1" stroke="#ffffff" stroke-opacity="1" stroke-width="1" stroke-linecap="square" stroke-linejoin="bevel" transform="matrix(1,0,0,1,0,0)"
font-family="Segoe UI" font-size="9" font-weight="400" font-style="normal" 
>
<rect x="32" y="0" width="695" height="189"/>
</g>

<g fill="none" stroke="#000000" stroke-opacity="1" stroke-width="1" stroke-linecap="square" stroke-linejoin="bevel" transform="matrix(1,0,0,1,0,0)"
font-family="Segoe UI" font-size="9" font-weight="400" font-style="normal" 
>
</g>

<g fill="none" stroke="#000000" stroke-opacity="1" stroke-width="1" stroke-linecap="square" stroke-linejoin="bevel" transform="matrix(1,0,0,1,32,0)"
font-family="Segoe UI" font-size="9" font-weight="400" font-style="normal" 
>
</g>

<g fill="none" stroke="#f0f0f0" stroke-opacity="1" stroke-width="1" stroke-linecap="square" stroke-linejoin="bevel" transform="matrix(1,0,0,1,32,0)"
font-family="Segoe UI" font-size="9" font-weight="400" font-style="normal" 
>
<polyline fill="none" vector-effect="none" points="0,143 695,143 " />
<polyline fill="none" vector-effect="none" points="0,128 695,128 " />
<polyline fill="none" vector-effect="none" points="0,113 695,113 " />
<polyline fill="none" vector-effect="none" points="0,98 695,98 " />
<polyline fill="none" vector-effect="none" points="0,82 695,82 " />
<polyline fill="none" vector-effect="none" points="0,67 695,67 " />
<polyline fill="none" vector-effect="none" points="0,52 695,52 " />
<polyline fill="none" vector-effect="none" points="0,37 695,37 " />
<polyline fill="none" vector-effect="none" points="0,21 695,21 " />
</g>

<g fill="none" stroke="#008000" stroke-opacity="1" stroke-width="1" stroke-linecap="square" stroke-linejoin="bevel" transform="matrix(1,0,0,1,32,0)"
font-family="Segoe UI" font-size="9" font-weight="400" font-style="normal" 
>
<path vector-effect="none" fill-rule="evenodd" d="M29,59.846 L202.996,64.4111 L245.852,72.3525 L271.48,73.4744 L289.824,73.6091 L304.121,69.8571 L315.837,70.0976 L325.764,64.5698 L334.376,60.4583 L341.982,59.8958 L348.791,65.6452 L354.956,74.1977 L360.587,69.2376 L365.77,71.0136 L370.57,73.4761 L375.041,77.6751 L379.225,74.4596 L383.156,71.3932 L386.863,72.494 L390.371,72.3421 L393.699,74.9279 L396.866,77.4435 L399.886,81.2781 L402.772,80.7476 L405.535,83.7831 L408.186,81.3573 L410.733,79.6179 L413.185,80.6953 L415.547,81.4696 L417.827,78.045 L420.03,79.1786 L422.16,82.5294 L424.223,82.4356 L426.223,87.7669 L428.163,85.7707 L430.047,88.0726 L431.878,91.4985 L433.659,84.2024 L435.393,84.7055 L437.082,89.405 L438.728,77.2507 L440.333,71.5499 L441.9,73.9497 L443.43,92.0313 L444.925,84.4096 L446.386,86.2053 L447.816,88.3106 L449.214,82.6008 L450.583,88.6598 L451.924,87.5328 L453.238,82.7976 L454.526,80.6253 L455.789,82.4561 L457.028,99.978 L458.244,86.8107 L459.438,88.8053 L460.61,89.5825 L461.761,87.3216 L462.893,87.736 L464.005,81.48 L465.098,85.5286 L466.173,85.5016 L467.231,89.2951 L468.272,86.6337 L469.297,82.9628 L470.305,84.7474 L471.299,88.4331 L472.277,89.8132 L473.241,88.015 L474.191,86.4801 L475.127,87.3066 L476.05,89.6368 L476.96,81.7632 L477.858,82.6867 L478.743,87.1967 L479.617,91.0702 L481.329,94.9513 L481.329,85.9595 M481.329,94.9513 L482.169,82.0869 L482.998,88.3581 L483.816,95.8005 L484.625,87.8773 L486.212,87.6936 L486.212,84.3416 M486.212,87.6936 L486.991,87.4362 L487.762,87.5399 L489.275,87.2411 L489.275,84.5621 M489.275,87.2411 L490.019,86.8278 L490.754,95.1848 L492.201,86.7355 L492.201,85.664 M492.201,86.7355 L492.912,81.5883 L494.312,86.8226 L494.312,80.903 M494.312,86.8226 L495,86.2711 L495.682,87.556 L497.024,93.0386 L497.024,90.8747 M497.024,93.0386 L497.685,86.4361 L498.987,97.2297 L498.987,88.2606 M498.987,97.2297 L500.263,97.4228 L500.263,86.6907 M500.263,97.4228 L500.892,82.5357 L502.132,85.5624 L502.132,82.2717 M502.132,85.5624 L502.743,83.8776 L503.948,83.0155 L503.948,81.4452 M503.948,83.0155 L505.132,95.1197 L505.132,90.8172 M505.132,95.1197 L505.716,85.1104 L506.868,89.278 L506.868,88.8532 M506.868,89.278 L508,92.1689 L508,86.3704 M508,92.1689 L509.113,93.5519 L509.113,88.2902 M509.113,93.5519 L510.207,97.264 L510.207,89.2488 M510.207,97.264 L510.747,92.7257 L511.814,104.667 L511.814,96.3534 M511.814,104.667 L512.864,98.9602 L512.864,88.228 M512.864,98.9602 L513.897,90.6803 L513.897,90.3268 M513.897,90.6803 L514.914,87.321 L514.914,85.0689 M514.914,87.321 L515.916,95.7235 L515.916,90.4022 M515.916,95.7235 L516.902,92.7515 L516.902,91.7052 M516.902,92.7515 L517.874,95.7389 L517.874,93.726 M517.874,95.7389 L518.831,97.0453 L518.831,92.0031 M518.831,97.0453 L519.775,94.3847 L519.775,92.0908 M519.775,94.3847 L521.165,88.9413 L521.165,87.5578 M521.165,88.9413 L522.076,87.939 L522.076,83.2724 M522.076,87.939 L522.974,94.5657 L522.974,86.7255 M522.974,94.5657 L523.859,87.0168 L523.859,85.975 M523.859,87.0168 L525.166,89.7687 L525.166,85.095 M525.166,89.7687 L526.022,88.3117 L526.022,82.6756 M526.022,88.3117 L526.868,87.0882 L526.868,86.0103 M526.868,87.0882 L528.116,92.4206 L528.116,85.9045 M528.116,92.4206 L528.935,87.8992 L528.935,86.7178 M528.935,87.8992 L530.144,92.3416 L530.144,87.6052 M530.144,92.3416 L530.938,87.8563 L530.938,85.4696 M530.938,87.8563 L532.112,95.8636 L532.112,86.716 M532.112,95.8636 L532.882,93.787 L532.882,86.8841 M532.882,93.787 L534.021,90.7595 L534.021,84.7601 M534.021,90.7595 L535.14,92.6877 L535.14,89.1161 M535.14,92.6877 L535.876,87.3698 L535.876,86.1298 M535.876,87.3698 L536.964,93.4267 L536.964,91.8286 M536.964,93.4267 L538.035,98.5154 L538.035,90.333 M538.035,98.5154 L539.088,98.8152 L539.088,93.7216 M539.088,98.8152 L540.124,93.0981 L540.124,88.2927 M540.124,93.0981 L541.144,92.6419 L541.144,90.4884 M541.144,92.6419 L542.148,99.9057 L542.148,89.7141 M542.148,99.9057 L543.137,103.116 L543.137,90.2675 M543.137,103.116 L544.112,97.5222 L544.112,91.2766 M544.112,97.5222 L545.071,110.955 L545.071,91.7224 M545.071,110.955 L546.017,100.458 L546.017,90.6141 M546.017,100.458 L546.95,99.3058 L546.95,93.1331 M546.95,99.3058 L547.869,92.4286 L547.869,89.1337 M547.869,92.4286 L549.075,102.571 L549.075,94.1056 M549.075,102.571 L549.965,94.8318 L549.965,93.141 M549.965,94.8318 L551.133,92.3222 L551.133,86.4503 M551.133,92.3222 L551.995,96.0754 L551.995,92.3568 M551.995,96.0754 L553.128,98.6012 L553.128,90.8004 M553.128,98.6012 L553.964,94.4835 L553.964,89.4078 M553.964,94.4835 L555.063,90.7669 L555.063,87.2074 M555.063,90.7669 L555.876,94.8631 L555.876,88.2481 M555.876,94.8631 L556.943,95.3186 L556.943,86.2167 M556.943,95.3186 L557.994,95.277 L557.994,90.6123 M557.994,95.277 L559.027,102.32 L559.027,95.2018 M559.027,102.32 L560.045,105.829 L560.045,93.7803 M560.045,105.829 L561.046,95.956 L561.046,90.0848 M561.046,95.956 L562.033,98.698 L562.033,89.7154 M562.033,98.698 L563.005,98.9971 L563.005,91.0827 M563.005,98.9971 L563.963,95.4442 L563.963,89.8689 M563.963,95.4442 L564.906,103.834 L564.906,91.4118 M564.906,103.834 L566.067,95.4348 L566.067,89.9849 M566.067,95.4348 L566.981,93.4936 L566.981,90.8901 M566.981,93.4936 L568.106,96.9111 L568.106,87.2245 M568.106,96.9111 L568.992,98.2409 L568.992,95.5339 M568.992,98.2409 L570.083,105.333 L570.083,95.7185 M570.083,105.333 L570.942,93.4465 L570.942,88.7054 M570.942,93.4465 L572.001,100.938 L572.001,90.1961 M572.001,100.938 L573.043,102.969 L573.043,93.2943 M573.043,102.969 L574.069,103.284 L574.069,89.9105 M574.069,103.284 L575.078,101.671 L575.078,93.4364 M575.078,101.671 L576.073,108.763 L576.073,97.3712 M576.073,108.763 L577.052,103.183 L577.052,94.0616 M577.052,103.183 L578.017,104.09 L578.017,99.6326 M578.017,104.09 L578.968,96.9826 L578.968,92.6133 M578.968,96.9826 L580.09,99.0682 L580.09,92.2179 M580.09,99.0682 L581.011,103.916 L581.011,92.152 M581.011,103.916 L581.92,98.2838 L581.92,92.3932 M581.92,98.2838 L582.993,105.925 L582.993,95.9232 M582.993,105.925 L584.049,109.608 L584.049,90.5619 M584.049,109.608 L584.916,104.256 L584.916,92.0519 M584.916,104.256 L585.942,101.098 L585.942,94.4662 M585.942,101.098 L586.952,103.632 L586.952,95.3254 M586.952,103.632 L587.946,102.66 L587.946,94.2477 M587.946,102.66 L588.925,101.928 L588.925,97.0961 M588.925,101.928 L590.05,105.943 L590.05,94.6657 M590.05,105.943 L590.998,106.719 L590.998,93.8665 M590.998,106.719 L591.933,106.503 L591.933,92.8395 M591.933,106.503 L593.007,103.793 L593.007,92.7024 M593.007,103.793 L594.063,112.554 L594.063,92.4355 M594.063,112.554 L594.955,103.533 L594.955,94.3846 M594.955,103.533 L595.981,103.416 L595.981,94.5741 M595.981,103.416 L596.991,107.978 L596.991,95.4514 M596.991,107.978 L597.985,102.356 L597.985,93.0481 M597.985,102.356 L598.964,108.719 L598.964,92.4996 M598.964,108.719 L600.066,111.779 L600.066,96.8728 M600.066,111.779 L601.015,100.177 L601.015,94.8939 M601.015,100.177 L601.95,102.266 L601.95,96.3698 M601.95,102.266 L603.002,99.9044 L603.002,96.4009 M603.002,99.9044 L604.038,107.226 L604.038,94.402 M604.038,107.226 L605.058,106.324 L605.058,95.9515 M605.058,106.324 L606.062,109.441 L606.062,96.9774 M606.062,109.441 L607.05,106.371 L607.05,97.3588 M607.05,106.371 L608.024,109.333 L608.024,95.4316 M608.024,109.333 L608.984,105.816 L608.984,94.794 M608.984,105.816 L610.047,106.22 L610.047,97.6645 M610.047,106.22 L610.977,106.134 L610.977,96.5774 M610.977,106.134 L612.008,108.936 L612.008,95.5953 M612.008,108.936 L613.023,109.06 L613.023,95.483 M613.023,109.06 L614.023,109.066 L614.023,96.3784 M614.023,109.066 L615.007,103.742 L615.007,94.7386 M615.007,103.742 L615.977,103.774 L615.977,95.0463 M615.977,103.774 L617.037,109.479 L617.037,95.6683 M617.037,109.479 L617.977,102.183 L617.977,94.7682 M617.977,102.183 L619.006,109.372 L619.006,97.7544 M619.006,109.372 L620.019,104.772 L620.019,96.3089 M620.019,104.772 L621.017,109.897 L621.017,98.0832 M621.017,109.897 L621.999,108.462 L621.999,94.7515 M621.999,108.462 L622.967,107.823 L622.967,95.4113 M622.967,107.823 L624.015,109.049 L624.015,94.202 M624.015,109.049 L624.953,111.712 L624.953,95.5971 M624.953,111.712 L625.97,109.095 L625.97,94.7196 M625.97,109.095 L626.972,107.326 L626.972,97.4752 M626.972,107.326 L627.958,104.209 L627.958,96.4868 M627.958,104.209 L629.017,111.574 L629.017,96.7702 M629.017,111.574 L629.973,113.823 L629.973,96.7859 M629.973,113.823 L631,118.915 L631,95.1007 M631,118.915 L632.011,105.499 L632.011,96.1892 M632.011,105.499 L633.007,108.271 L633.007,98.5286 M633.007,108.271 L633.987,107.085 L633.987,97.2422 M633.987,107.085 L635.033,103.376 L635.033,95.1848 M635.033,103.376 L635.984,109.029 L635.984,97.8669 M635.984,109.029 L636.999,106.228 L636.999,92.8267 M636.999,106.228 L637.998,105.266 L637.998,96.6652 M637.998,105.266 L638.982,105.342 L638.982,95.2971 M638.982,105.342 L640.025,112.424 L640.025,97.5318 M640.025,112.424 L640.979,110.183 L640.979,96.8972 M640.979,110.183 L641.991,108.638 L641.991,95.0558 M641.991,108.638 L642.988,107.758 L642.988,95.4676 M642.988,107.758 L643.969,117.78 L643.969,96.8191 M643.969,117.78 L645.005,114.881 L645.005,97.3338 M645.005,114.881 L646.024,109.402 L646.024,96.9104 M646.024,109.402 L647.028,107.782 L647.028,96.0636 M647.028,107.782 L648.016,115.066 L648.016,99.5147 M648.016,115.066 L648.989,106.804 L648.989,96.3707 M648.989,106.804 L650.012,114.073 L650.012,96.4147 M650.012,114.073 L651.019,107.622 L651.019,94.593 M651.019,107.622 L652.011,115.211 L652.011,98.0505 M652.011,115.211 L652.987,108.833 L652.987,96.6697 M652.987,108.833 L654.009,112.286 L654.009,99.4802 M654.009,112.286 L655.015,114.498 L655.015,93.4914 M655.015,114.498 L656.006,108.233 L656.006,94.6688 M656.006,108.233 L656.982,116.45 L656.982,95.2863 M656.982,116.45 L658,113.684 L658,95.5872 M658,113.684 L659.002,116.964 L659.002,96.056 M659.002,116.964 L659.989,110.758 L659.989,99.7124 M659.989,110.758 L661.015,116.728 L661.015,95.5456 M661.015,116.728 L662.024,110.183 L662.024,96.6501 M662.024,110.183 L663.019,114.125 L663.019,95.9555 M663.019,114.125 L663.998,109.768 L663.998,96.4377 M663.998,109.768 L665.014,116.337 L665.014,96.4994 M665.014,116.337 L666.013,117.651 L666.013,96.3092 M666.013,117.651 L666.998,106.645 L666.998,94.9399 M666.998,106.645 L668.016,116.968 L668.016,99.6358 M668.016,116.968 L669.018,110.847 L669.018,97.8814 M669.018,110.847 L670.006,108.32 L670.006,95.459 M670.006,108.32 L670.978,108.602 L670.978,94.0431 M670.978,108.602 L671.982,116.847 L671.982,98.2721 M671.982,116.847 L673.014,124.454 L673.014,97.8674 M673.014,124.454 L673.987,115.011 L673.987,94.5359 M673.987,115.011 L674.989,118.048 L674.989,94.4608 M674.989,118.048 L676.018,113.784 L676.018,96.894 M676.018,113.784 L676.989,115.265 L676.989,96.821 M676.989,115.265 L677.988,110.624 L677.988,95.3048 M677.988,110.624 L679.011,108.862 L679.011,95.6355 M679.011,108.862 L680.019,109.124 L680.019,95.3381 M680.019,109.124 L681.012,116.797 L681.012,94.2202 M681.012,116.797 L681.99,109.913 L681.99,94.6036 M681.99,109.913 L682.991,114.962 L682.991,95.408 M682.991,114.962 L684.015,110.962 L684.015,98.5436 M684.015,110.962 L684.986,127.833 L684.986,97.5373 M684.986,127.833 L686.016,115.161 L686.016,94.3306 M686.016,115.161 L686.994,117.789 L686.994,96.9633 M686.994,117.789 L687.993,115.241 L687.993,98.6064 M687.993,115.241 L689.011,109.815 L689.011,96.5512 M689.011,109.815 L690.014,115.908 L690.014,97.2931 M690.014,115.908 L691.002,118.312 L691.002,99.6252 M691.002,118.312 L692.008,112.002 L692.008,99.6573 M692.008,112.002 L692.999,116.747 L692.999,100.598 M692.999,116.747 L694.007,123.087 L694.007,102.233 M694.007,123.087 L694.968,123.863 L694.968,105.262 M694.968,123.863"/>
</g>

<g fill="none" stroke="#000000" stroke-opacity="1" stroke-width="1" stroke-linecap="square" stroke-linejoin="bevel" transform="matrix(1,0,0,1,32,0)"
font-family="Segoe UI" font-size="9" font-weight="400" font-style="normal" 
>
<polyline fill="none" vector-effect="none" points="29,156 723,156 " />
</g>

<g fill="#000000" fill-opacity="1" stroke="#000000" stroke-opacity="1" stroke-width="1" stroke-linecap="square" stroke-linejoin="bevel" transform="matrix(1,0,0,1,32,0)"
font-family="Segoe UI" font-size="9" font-weight="400" font-style="normal" 
>
<polyline fill="none" vector-effect="none" points="186,156 186,166 " />
</g>

<g fill="#a0a0a4" fill-opacity="1" stroke="none" transform="matrix(1,0,0,1,32,0)"
font-family="Segoe UI" font-size="9" font-weight="400" font-style="normal" 
>
<rect x="185" y="157" width="5" height="10"/>
</g>

<g fill="#000000" fill-opacity="1" stroke="#000000" stroke-opacity="1" stroke-width="1" stroke-linecap="square" stroke-linejoin="bevel" transform="matrix(1,0,0,1,32,0)"
font-family="Segoe UI" font-size="9" font-weight="400" font-style="normal" 
>
<polyline fill="none" vector-effect="none" points="190,156 190,166 " />
<rect x="189" y="161" width="2" height="5"/>
<polyline fill="none" vector-effect="none" points="197,156 197,166 " />
<rect x="196" y="161" width="2" height="5"/>
<polyline fill="none" vector-effect="none" points="202,156 202,166 " />
<polyline fill="none" vector-effect="none" points="207,156 207,166 " />
<rect x="206" y="161" width="2" height="5"/>
<polyline fill="none" vector-effect="none" points="214,156 214,166 " />
<rect x="213" y="161" width="2" height="5"/>
<polyline fill="none" vector-effect="none" points="222,156 222,166 " />
<rect x="221" y="161" width="2" height="5"/>
<polyline fill="none" vector-effect="none" points="227,156 227,166 " />
</g>

<g fill="#a0a0a4" fill-opacity="1" stroke="none" transform="matrix(1,0,0,1,32,0)"
font-family="Segoe UI" font-size="9" font-weight="400" font-style="normal" 
>
<rect x="228" y="157" width="4" height="10"/>
</g>

<g fill="#000000" fill-opacity="1" stroke="#000000" stroke-opacity="1" stroke-width="1" stroke-linecap="square" stroke-linejoin="bevel" transform="matrix(1,0,0,1,32,0)"
font-family="Segoe UI" font-size="9" font-weight="400" font-style="normal" 
>
<polyline fill="none" vector-effect="none" points="232,156 232,166 " />
<rect x="231" y="161" width="2" height="5"/>
<polyline fill="none" vector-effect="none" points="239,156 239,166 " />
<rect x="238" y="161" width="2" height="5"/>
<polyline fill="none" vector-effect="none" points="245,156 245,166 " />
<polyline fill="none" vector-effect="none" points="250,156 250,166 " />
<rect x="249" y="161" width="2" height="5"/>
<polyline fill="none" vector-effect="none" points="258,156 258,166 " />
<rect x="257" y="161" width="2" height="5"/>
<polyline fill="none" vector-effect="none" points="265,156 265,166 " />
<rect x="264" y="161" width="2" height="5"/>
<polyline fill="none" vector-effect="none" points="270,156 270,166 " />
</g>

<g fill="#a0a0a4" fill-opacity="1" stroke="none" transform="matrix(1,0,0,1,32,0)"
font-family="Segoe UI" font-size="9" font-weight="400" font-style="normal" 
>
<rect x="271" y="157" width="5" height="10"/>
</g>

<g fill="#000000" fill-opacity="1" stroke="#000000" stroke-opacity="1" stroke-width="1" stroke-linecap="square" stroke-linejoin="bevel" transform="matrix(1,0,0,1,32,0)"
font-family="Segoe UI" font-size="9" font-weight="400" font-style="normal" 
>
<polyline fill="none" vector-effect="none" points="276,156 276,166 " />
<rect x="275" y="161" width="2" height="5"/>
<polyline fill="none" vector-effect="none" points="283,156 283,166 " />
<rect x="282" y="161" width="2" height="5"/>
<polyline fill="none" vector-effect="none" points="289,156 289,166 " />
<polyline fill="none" vector-effect="none" points="294,156 294,166 " />
<rect x="293" y="161" width="2" height="5"/>
<polyline fill="none" vector-effect="none" points="302,156 302,166 " />
<rect x="301" y="161" width="2" height="5"/>
<polyline fill="none" vector-effect="none" points="309,156 309,166 " />
<rect x="308" y="161" width="2" height="5"/>
<polyline fill="none" vector-effect="none" points="315,156 315,166 " />
</g>

<g fill="#a0a0a4" fill-opacity="1" stroke="none" transform="matrix(1,0,0,1,32,0)"
font-family="Segoe UI" font-size="9" font-weight="400" font-style="normal" 
>
<rect x="316" y="157" width="4" height="10"/>
</g>

<g fill="#000000" fill-opacity="1" stroke="#000000" stroke-opacity="1" stroke-width="1" stroke-linecap="square" stroke-linejoin="bevel" transform="matrix(1,0,0,1,32,0)"
font-family="Segoe UI" font-size="9" font-weight="400" font-style="normal" 
>
<polyline fill="none" vector-effect="none" points="320,156 320,166 " />
<rect x="319" y="161" width="2" height="5"/>
<polyline fill="none" vector-effect="none" points="328,156 328,166 " />
<rect x="327" y="161" width="2" height="5"/>
<polyline fill="none" vector-effect="none" points="333,156 333,166 " />
<polyline fill="none" vector-effect="none" points="339,156 339,166 " />
<rect x="338" y="161" width="2" height="5"/>
<polyline fill="none" vector-effect="none" points="346,156 346,166 " />
<rect x="345" y="161" width="2" height="5"/>
<polyline fill="none" vector-effect="none" points="354,156 354,166 " />
<rect x="353" y="161" width="2" height="5"/>
<polyline fill="none" vector-effect="none" points="359,156 359,166 " />
</g>

<g fill="#a0a0a4" fill-opacity="1" stroke="none" transform="matrix(1,0,0,1,32,0)"
font-family="Segoe UI" font-size="9" font-weight="400" font-style="normal" 
>
<rect x="360" y="157" width="5" height="10"/>
</g>

<g fill="#000000" fill-opacity="1" stroke="#000000" stroke-opacity="1" stroke-width="1" stroke-linecap="square" stroke-linejoin="bevel" transform="matrix(1,0,0,1,32,0)"
font-family="Segoe UI" font-size="9" font-weight="400" font-style="normal" 
>
<polyline fill="none" vector-effect="none" points="365,156 365,166 " />
<rect x="364" y="161" width="2" height="5"/>
<polyline fill="none" vector-effect="none" points="373,156 373,166 " />
<rect x="372" y="161" width="2" height="5"/>
<polyline fill="none" vector-effect="none" points="378,156 378,166 " />
<polyline fill="none" vector-effect="none" points="384,156 384,166 " />
<rect x="383" y="161" width="2" height="5"/>
<polyline fill="none" vector-effect="none" points="391,156 391,166 " />
<rect x="390" y="161" width="2" height="5"/>
<polyline fill="none" vector-effect="none" points="399,156 399,166 " />
<rect x="398" y="161" width="2" height="5"/>
<polyline fill="none" vector-effect="none" points="404,156 404,166 " />
</g>

<g fill="#7f7fff" fill-opacity="1" stroke="none" transform="matrix(1,0,0,1,32,0)"
font-family="Segoe UI" font-size="9" font-weight="400" font-style="normal" 
>
<rect x="405" y="157" width="5" height="10"/>
</g>

<g fill="#000000" fill-opacity="1" stroke="#000000" stroke-opacity="1" stroke-width="1" stroke-linecap="square" stroke-linejoin="bevel" transform="matrix(1,0,0,1,32,0)"
font-family="Segoe UI" font-size="9" font-weight="400" font-style="normal" 
>
<polyline fill="none" vector-effect="none" points="410,156 410,166 " />
<rect x="409" y="161" width="2" height="5"/>
<polyline fill="none" vector-effect="none" points="418,156 418,166 " />
<rect x="417" y="161" width="2" height="5"/>
<polyline fill="none" vector-effect="none" points="423,156 423,166 " />
<polyline fill="none" vector-effect="none" points="429,156 429,166 " />
<rect x="428" y="161" width="2" height="5"/>
<polyline fill="none" vector-effect="none" points="436,156 436,166 " />
<rect x="435" y="161" width="2" height="5"/>
<polyline fill="none" vector-effect="none" points="444,156 444,166 " />
<rect x="443" y="161" width="2" height="5"/>
<polyline fill="none" vector-effect="none" points="449,156 449,166 " />
</g>

<g fill="#a0a0a4" fill-opacity="1" stroke="none" transform="matrix(1,0,0,1,32,0)"
font-family="Segoe UI" font-size="9" font-weight="400" font-style="normal" 
>
<rect x="450" y="157" width="5" height="10"/>
</g>

<g fill="#000000" fill-opacity="1" stroke="#000000" stroke-opacity="1" stroke-width="1" stroke-linecap="square" stroke-linejoin="bevel" transform="matrix(1,0,0,1,32,0)"
font-family="Segoe UI" font-size="9" font-weight="400" font-style="normal" 
>
<polyline fill="none" vector-effect="none" points="455,156 455,166 " />
<rect x="454" y="161" width="2" height="5"/>
<polyline fill="none" vector-effect="none" points="463,156 463,166 " />
<rect x="462" y="161" width="2" height="5"/>
<polyline fill="none" vector-effect="none" points="468,156 468,166 " />
<polyline fill="none" vector-effect="none" points="474,156 474,166 " />
<rect x="473" y="161" width="2" height="5"/>
<polyline fill="none" vector-effect="none" points="481,156 481,166 " />
<rect x="480" y="161" width="2" height="5"/>
<polyline fill="none" vector-effect="none" points="489,156 489,166 " />
<rect x="488" y="161" width="2" height="5"/>
<polyline fill="none" vector-effect="none" points="494,156 494,166 " />
</g>

<g fill="#a0a0a4" fill-opacity="1" stroke="none" transform="matrix(1,0,0,1,32,0)"
font-family="Segoe UI" font-size="9" font-weight="400" font-style="normal" 
>
<rect x="495" y="157" width="5" height="10"/>
</g>

<g fill="#000000" fill-opacity="1" stroke="#000000" stroke-opacity="1" stroke-width="1" stroke-linecap="square" stroke-linejoin="bevel" transform="matrix(1,0,0,1,32,0)"
font-family="Segoe UI" font-size="9" font-weight="400" font-style="normal" 
>
<polyline fill="none" vector-effect="none" points="500,156 500,166 " />
<rect x="499" y="161" width="2" height="5"/>
<polyline fill="none" vector-effect="none" points="508,156 508,166 " />
<rect x="507" y="161" width="2" height="5"/>
<polyline fill="none" vector-effect="none" points="513,156 513,166 " />
<polyline fill="none" vector-effect="none" points="519,156 519,166 " />
<rect x="518" y="161" width="2" height="5"/>
<polyline fill="none" vector-effect="none" points="527,156 527,166 " />
<rect x="526" y="161" width="2" height="5"/>
<polyline fill="none" vector-effect="none" points="534,156 534,166 " />
<rect x="533" y="161" width="2" height="5"/>
<polyline fill="none" vector-effect="none" points="540,156 540,166 " />
</g>

<g fill="#a0a0a4" fill-opacity="1" stroke="none" transform="matrix(1,0,0,1,32,0)"
font-family="Segoe UI" font-size="9" font-weight="400" font-style="normal" 
>
<rect x="541" y="157" width="4" height="10"/>
</g>

<g fill="#000000" fill-opacity="1" stroke="#000000" stroke-opacity="1" stroke-width="1" stroke-linecap="square" stroke-linejoin="bevel" transform="matrix(1,0,0,1,32,0)"
font-family="Segoe UI" font-size="9" font-weight="400" font-style="normal" 
>
<polyline fill="none" vector-effect="none" points="545,156 545,166 " />
<rect x="544" y="161" width="2" height="5"/>
<polyline fill="none" vector-effect="none" points="553,156 553,166 " />
<rect x="552" y="161" width="2" height="5"/>
<polyline fill="none" vector-effect="none" points="558,156 558,166 " />
<polyline fill="none" vector-effect="none" points="564,156 564,166 " />
<rect x="563" y="161" width="2" height="5"/>
<polyline fill="none" vector-effect="none" points="572,156 572,166 " />
<rect x="571" y="161" width="2" height="5"/>
<polyline fill="none" vector-effect="none" points="579,156 579,166 " />
<rect x="578" y="161" width="2" height="5"/>
<polyline fill="none" vector-effect="none" points="585,156 585,166 " />
</g>

<g fill="#a0a0a4" fill-opacity="1" stroke="none" transform="matrix(1,0,0,1,32,0)"
font-family="Segoe UI" font-size="9" font-weight="400" font-style="normal" 
>
<rect x="586" y="157" width="5" height="10"/>
</g>

<g fill="#000000" fill-opacity="1" stroke="#000000" stroke-opacity="1" stroke-width="1" stroke-linecap="square" stroke-linejoin="bevel" transform="matrix(1,0,0,1,32,0)"
font-family="Segoe UI" font-size="9" font-weight="400" font-style="normal" 
>
<polyline fill="none" vector-effect="none" points="591,156 591,166 " />
<rect x="590" y="161" width="2" height="5"/>
<polyline fill="none" vector-effect="none" points="598,156 598,166 " />
<rect x="597" y="161" width="2" height="5"/>
<polyline fill="none" vector-effect="none" points="604,156 604,166 " />
<polyline fill="none" vector-effect="none" points="609,156 609,166 " />
<rect x="608" y="161" width="2" height="5"/>
<polyline fill="none" vector-effect="none" points="617,156 617,166 " />
<rect x="616" y="161" width="2" height="5"/>
<polyline fill="none" vector-effect="none" points="624,156 624,166 " />
<rect x="623" y="161" width="2" height="5"/>
<polyline fill="none" vector-effect="none" points="630,156 630,166 " />
</g>

<g fill="#a0a0a4" fill-opacity="1" stroke="none" transform="matrix(1,0,0,1,32,0)"
font-family="Segoe UI" font-size="9" font-weight="400" font-style="normal" 
>
<rect x="631" y="157" width="5" height="10"/>
</g>

<g fill="#000000" fill-opacity="1" stroke="#000000" stroke-opacity="1" stroke-width="1" stroke-linecap="square" stroke-linejoin="bevel" transform="matrix(1,0,0,1,32,0)"
font-family="Segoe UI" font-size="9" font-weight="400" font-style="normal" 
>
<polyline fill="none" vector-effect="none" points="636,156 636,166 " />
<rect x="635" y="161" width="2" height="5"/>
<polyline fill="none" vector-effect="none" points="643,156 643,166 " />
<rect x="642" y="161" width="2" height="5"/>
<polyline fill="none" vector-effect="none" points="649,156 649,166 " />
<polyline fill="none" vector-effect="none" points="654,156 654,166 " />
<rect x="653" y="161" width="2" height="5"/>
<polyline fill="none" vector-effect="none" points="29,167 202,167 " />
<text fill="#000000" fill-opacity="1" stroke="none" xml:space="preserve" x="187" y="182" font-family="Segoe UI" font-size="9" font-weight="400" font-style="normal" 
 >Hz</text>
<polyline fill="none" vector-effect="none" points="202,167 897,167 " />
<polyline fill="none" vector-effect="none" points="227,167 227,199 " />
<text fill="#000000" fill-opacity="1" stroke="none" xml:space="preserve" x="232" y="182" font-family="Segoe UI" font-size="9" font-weight="400" font-style="normal" 
 >16</text>
<polyline fill="none" vector-effect="none" points="255,167 255,199 " />
<text fill="#000000" fill-opacity="1" stroke="none" xml:space="preserve" x="260" y="182" font-family="Segoe UI" font-size="9" font-weight="400" font-style="normal" 
 >25</text>
<polyline fill="none" vector-effect="none" points="285,167 285,199 " />
<text fill="#000000" fill-opacity="1" stroke="none" xml:space="preserve" x="290" y="182" font-family="Segoe UI" font-size="9" font-weight="400" font-style="normal" 
 >40</text>
<polyline fill="none" vector-effect="none" points="314,167 314,199 " />
<text fill="#000000" fill-opacity="1" stroke="none" xml:space="preserve" x="319" y="182" font-family="Segoe UI" font-size="9" font-weight="400" font-style="normal" 
 >63</text>
<polyline fill="none" vector-effect="none" points="344,167 344,199 " />
<text fill="#000000" fill-opacity="1" stroke="none" xml:space="preserve" x="349" y="182" font-family="Segoe UI" font-size="9" font-weight="400" font-style="normal" 
 >100</text>
<polyline fill="none" vector-effect="none" points="374,167 374,199 " />
<text fill="#000000" fill-opacity="1" stroke="none" xml:space="preserve" x="379" y="182" font-family="Segoe UI" font-size="9" font-weight="400" font-style="normal" 
 >160</text>
<polyline fill="none" vector-effect="none" points="403,167 403,199 " />
<text fill="#000000" fill-opacity="1" stroke="none" xml:space="preserve" x="408" y="182" font-family="Segoe UI" font-size="9" font-weight="400" font-style="normal" 
 >250</text>
<polyline fill="none" vector-effect="none" points="434,167 434,199 " />
<text fill="#000000" fill-opacity="1" stroke="none" xml:space="preserve" x="439" y="182" font-family="Segoe UI" font-size="9" font-weight="400" font-style="normal" 
 >400</text>
<polyline fill="none" vector-effect="none" points="463,167 463,199 " />
<text fill="#000000" fill-opacity="1" stroke="none" xml:space="preserve" x="468" y="182" font-family="Segoe UI" font-size="9" font-weight="400" font-style="normal" 
 >630</text>
<polyline fill="none" vector-effect="none" points="494,167 494,199 " />
<text fill="#000000" fill-opacity="1" stroke="none" xml:space="preserve" x="499" y="182" font-family="Segoe UI" font-size="9" font-weight="400" font-style="normal" 
 >1000</text>
<polyline fill="none" vector-effect="none" points="524,167 524,199 " />
<text fill="#000000" fill-opacity="1" stroke="none" xml:space="preserve" x="529" y="182" font-family="Segoe UI" font-size="9" font-weight="400" font-style="normal" 
 >1600</text>
<polyline fill="none" vector-effect="none" points="584,167 584,199 " />
<text fill="#000000" fill-opacity="1" stroke="none" xml:space="preserve" x="589" y="182" font-family="Segoe UI" font-size="9" font-weight="400" font-style="normal" 
 >4000</text>
<polyline fill="none" vector-effect="none" points="643,167 643,199 " />
<text fill="#000000" fill-opacity="1" stroke="none" xml:space="preserve" x="648" y="182" font-family="Segoe UI" font-size="9" font-weight="400" font-style="normal" 
 >1e+04</text>
<polyline fill="none" vector-effect="none" points="695,167 695,199 " />
<text fill="#000000" fill-opacity="1" stroke="none" xml:space="preserve" x="700" y="182" font-family="Segoe UI" font-size="9" font-weight="400" font-style="normal" 
 >2.5e+04</text>
</g>

<g fill="none" stroke="#000000" stroke-opacity="1" stroke-width="1" stroke-linecap="square" stroke-linejoin="bevel" transform="matrix(1,0,0,1,32,0)"
font-family="Segoe UI" font-size="9" font-weight="400" font-style="normal" 
>
</g>

<g fill="none" stroke="#000000" stroke-opacity="1" stroke-width="1" stroke-linecap="square" stroke-linejoin="bevel" transform="matrix(1,0,0,1,0,0)"
font-family="Segoe UI" font-size="9" font-weight="400" font-style="normal" 
>
</g>

<g fill="#ffffff" fill-opacity="1" stroke="#000000" stroke-opacity="1" stroke-width="1" stroke-linecap="square" stroke-linejoin="bevel" transform="matrix(1,0,0,1,0,0)"
font-family="Segoe UI" font-size="9" font-weight="400" font-style="normal" 
>
<rect x="0" y="-1" width="32" height="190"/>
</g>

<g fill="none" stroke="#000000" stroke-opacity="1" stroke-width="1" stroke-linecap="square" stroke-linejoin="bevel" transform="matrix(1,0,0,1,0,0)"
font-family="Segoe UI" font-size="9" font-weight="400" font-style="normal" 
>
<text fill="#000000" fill-opacity="1" stroke="none" xml:space="preserve" x="8" y="150" font-family="Segoe UI" font-size="9" font-weight="400" font-style="normal" 
 >-80</text>
<polyline fill="none" vector-effect="none" points="25,145 32,145 " />
<text fill="#000000" fill-opacity="1" stroke="none" xml:space="preserve" x="8" y="135" font-family="Segoe UI" font-size="9" font-weight="400" font-style="normal" 
 >-70</text>
<polyline fill="none" vector-effect="none" points="25,130 32,130 " />
<text fill="#000000" fill-opacity="1" stroke="none" xml:space="preserve" x="8" y="119" font-family="Segoe UI" font-size="9" font-weight="400" font-style="normal" 
 >-60</text>
<polyline fill="none" vector-effect="none" points="25,114 32,114 " />
<text fill="#000000" fill-opacity="1" stroke="none" xml:space="preserve" x="8" y="104" font-family="Segoe UI" font-size="9" font-weight="400" font-style="normal" 
 >-50</text>
<polyline fill="none" vector-effect="none" points="25,99 32,99 " />
<text fill="#000000" fill-opacity="1" stroke="none" xml:space="preserve" x="8" y="88" font-family="Segoe UI" font-size="9" font-weight="400" font-style="normal" 
 >-40</text>
<polyline fill="none" vector-effect="none" points="25,83 32,83 " />
<text fill="#000000" fill-opacity="1" stroke="none" xml:space="preserve" x="8" y="72" font-family="Segoe UI" font-size="9" font-weight="400" font-style="normal" 
 >-30</text>
<polyline fill="none" vector-effect="none" points="25,67 32,67 " />
<text fill="#000000" fill-opacity="1" stroke="none" xml:space="preserve" x="8" y="57" font-family="Segoe UI" font-size="9" font-weight="400" font-style="normal" 
 >-20</text>
<polyline fill="none" vector-effect="none" points="25,52 32,52 " />
<text fill="#000000" fill-opacity="1" stroke="none" xml:space="preserve" x="8" y="41" font-family="Segoe UI" font-size="9" font-weight="400" font-style="normal" 
 >-10</text>
<polyline fill="none" vector-effect="none" points="25,36 32,36 " />
<text fill="#000000" fill-opacity="1" stroke="none" xml:space="preserve" x="7" y="25" font-family="Segoe UI" font-size="9" font-weight="400" font-style="normal" 
 >0dB</text>
<polyline fill="none" vector-effect="none" points="25,20 32,20 " />
</g>

<g fill="none" stroke="#000000" stroke-opacity="1" stroke-width="1" stroke-linecap="square" stroke-linejoin="bevel" transform="matrix(1,0,0,1,0,0)"
font-family="Segoe UI" font-size="9" font-weight="400" font-style="normal" 
>
</g>
</g>
</svg>
