<?xml version="1.0" encoding="UTF-8" standalone="no"?>
<svg width="233.892mm" height="66.675mm"
 viewBox="0 0 663 189"
 xmlns="http://www.w3.org/2000/svg" xmlns:xlink="http://www.w3.org/1999/xlink"  version="1.2" baseProfile="tiny">
<title>Exported image from Sonic Visualiser</title>
<desc>Generated with Qt</desc>
<defs>
</defs>
<g fill="none" stroke="black" stroke-width="1" fill-rule="evenodd" stroke-linecap="square" stroke-linejoin="bevel" >

<g fill="#ffffff" fill-opacity="1" stroke="#ffffff" stroke-opacity="1" stroke-width="1" stroke-linecap="square" stroke-linejoin="bevel" transform="matrix(1,0,0,1,0,0)"
font-family="Segoe UI" font-size="9" font-weight="400" font-style="normal" 
>
<rect x="32" y="0" width="695" height="189"/>
</g>

<g fill="none" stroke="#000000" stroke-opacity="1" stroke-width="1" stroke-linecap="square" stroke-linejoin="bevel" transform="matrix(1,0,0,1,0,0)"
font-family="Segoe UI" font-size="9" font-weight="400" font-style="normal" 
>
</g>

<g fill="none" stroke="#000000" stroke-opacity="1" stroke-width="1" stroke-linecap="square" stroke-linejoin="bevel" transform="matrix(1,0,0,1,32,0)"
font-family="Segoe UI" font-size="9" font-weight="400" font-style="normal" 
>
</g>

<g fill="none" stroke="#f0f0f0" stroke-opacity="1" stroke-width="1" stroke-linecap="square" stroke-linejoin="bevel" transform="matrix(1,0,0,1,32,0)"
font-family="Segoe UI" font-size="9" font-weight="400" font-style="normal" 
>
<polyline fill="none" vector-effect="none" points="0,143 695,143 " />
<polyline fill="none" vector-effect="none" points="0,128 695,128 " />
<polyline fill="none" vector-effect="none" points="0,113 695,113 " />
<polyline fill="none" vector-effect="none" points="0,98 695,98 " />
<polyline fill="none" vector-effect="none" points="0,82 695,82 " />
<polyline fill="none" vector-effect="none" points="0,67 695,67 " />
<polyline fill="none" vector-effect="none" points="0,52 695,52 " />
<polyline fill="none" vector-effect="none" points="0,37 695,37 " />
<polyline fill="none" vector-effect="none" points="0,21 695,21 " />
</g>

<g fill="none" stroke="#ff9632" stroke-opacity="1" stroke-width="1" stroke-linecap="square" stroke-linejoin="bevel" transform="matrix(1,0,0,1,32,0)"
font-family="Segoe UI" font-size="9" font-weight="400" font-style="normal" 
>
<path vector-effect="none" fill-rule="evenodd" d="M29,71.991 L202.996,63.4388 L245.852,61.2152 L271.48,66.4087 L289.824,68.829 L304.121,74.4452 L315.837,68.3269 L325.764,64.7396 L334.376,66.8733 L341.982,69.0428 L348.791,67.1592 L354.956,65.7203 L360.587,70.3264 L365.77,81.0851 L370.57,70.6799 L375.041,68.1439 L379.225,70.5289 L383.156,81.1569 L386.863,84.2967 L390.371,80.9454 L393.699,80.8125 L396.866,85.7757 L399.886,82.1765 L402.772,85.8389 L405.535,88.7766 L408.186,91.8149 L410.733,90.0162 L413.185,89.344 L415.547,85.9998 L417.827,92.0609 L420.03,90.436 L422.16,92.0113 L424.223,97.0974 L426.223,85.65 L428.163,85.5909 L430.047,90.1988 L431.878,97.6564 L433.659,101.804 L435.393,99.3013 L437.082,93.8204 L438.728,95.8996 L440.333,92.2132 L441.9,93.7333 L443.43,99.456 L444.925,99.9079 L446.386,106.388 L447.816,93.4911 L449.214,96.8436 L450.583,97.9294 L451.924,89.9382 L453.238,88.2136 L454.526,90.7177 L455.789,98.2448 L457.028,93.7292 L458.244,90.5046 L459.438,97.5312 L460.61,94.4425 L461.761,94.3083 L462.893,94.7548 L464.005,94.8235 L465.098,89.0065 L466.173,88.4068 L467.231,94.8246 L468.272,102.349 L469.297,94.8459 L470.305,94.0064 L471.299,99.8455 L472.277,104.737 L473.241,105.79 L474.191,100.223 L475.127,95.4429 L476.05,93.846 L476.96,94.6491 L477.858,98.462 L478.743,96.2831 L479.617,93.7466 L481.329,103.674 L481.329,96.3958 M481.329,103.674 L482.169,100.105 L482.998,95.7899 L483.816,98.0879 L484.625,100.096 L486.212,98.229 L486.212,97.83 M486.212,98.229 L486.991,100.058 L487.762,97.8781 L489.275,98.0445 L489.275,97.6864 M489.275,98.0445 L490.019,95.5041 L490.754,98.6844 L492.201,115.016 L492.201,96.0448 M492.201,115.016 L492.912,100.957 L494.312,95.9913 L494.312,94.9944 M494.312,95.9913 L495,96.5633 L495.682,98.7736 L497.024,108.154 L497.024,104.12 M497.024,108.154 L497.685,98.4259 L498.987,96.462 L498.987,95.1709 M498.987,96.462 L500.263,107.249 L500.263,104.315 M500.263,107.249 L500.892,101.029 L502.132,110.613 L502.132,100.344 M502.132,110.613 L502.743,97.8524 L503.948,99.9265 L503.948,96.7488 M503.948,99.9265 L505.132,101.322 L505.132,100.123 M505.132,101.322 L505.716,101.204 L506.868,100.853 L506.868,99.8554 M506.868,100.853 L508,103.736 L508,96.1925 M508,103.736 L509.113,101.2 L509.113,96.8544 M509.113,101.2 L510.207,98.1303 L510.207,95.3488 M510.207,98.1303 L510.747,95.2355 L511.814,113.363 L511.814,98.6796 M511.814,113.363 L512.864,104.43 L512.864,101.169 M512.864,104.43 L513.897,103.134 L513.897,101.399 M513.897,103.134 L514.914,107.966 L514.914,104.483 M514.914,107.966 L515.916,102.226 L515.916,99.6496 M515.916,102.226 L516.902,109.872 L516.902,99.6735 M516.902,109.872 L517.874,100.512 L517.874,97.471 M517.874,100.512 L518.831,98.9055 L518.831,97.7339 M518.831,98.9055 L519.775,114.408 L519.775,106.427 M519.775,114.408 L521.165,98.4035 L521.165,95.1014 M521.165,98.4035 L522.076,105.593 L522.076,104.112 M522.076,105.593 L522.974,105.625 L522.974,100.215 M522.974,105.625 L523.859,98.2687 L523.859,97.3111 M523.859,98.2687 L525.166,99.3999 L525.166,95.9614 M525.166,99.3999 L526.022,98.2812 L526.022,96.075 M526.022,98.2812 L526.868,102.825 L526.868,101.875 M526.868,102.825 L528.116,107.304 L528.116,103.19 M528.116,107.304 L528.935,99.059 L528.935,94.8309 M528.935,99.059 L530.144,97.8335 L530.144,95.2342 M530.144,97.8335 L530.938,101.627 L530.938,98.4826 M530.938,101.627 L532.112,106.58 L532.112,103.591 M532.112,106.58 L532.882,102.915 L532.882,102.811 M532.882,102.915 L534.021,106.936 L534.021,102.134 M534.021,106.936 L535.14,112.384 L535.14,97.9283 M535.14,112.384 L535.876,105.496 L535.876,100.959 M535.876,105.496 L536.964,109.715 L536.964,105.073 M536.964,109.715 L538.035,101.367 L538.035,99.5702 M538.035,101.367 L539.088,111.266 L539.088,101.573 M539.088,111.266 L540.124,105.803 L540.124,101.113 M540.124,105.803 L541.144,110.559 L541.144,100.254 M541.144,110.559 L542.148,109.651 L542.148,101.29 M542.148,109.651 L543.137,111.225 L543.137,107.562 M543.137,111.225 L544.112,105.61 L544.112,103.322 M544.112,105.61 L545.071,102.982 L545.071,101.967 M545.071,102.982 L546.017,113.465 L546.017,99.3377 M546.017,113.465 L546.95,108.792 L546.95,100.262 M546.95,108.792 L547.869,105.962 L547.869,101.873 M547.869,105.962 L549.075,113.442 L549.075,98.1416 M549.075,113.442 L549.965,110.869 L549.965,97.4794 M549.965,110.869 L551.133,111.269 L551.133,102.064 M551.133,111.269 L551.995,105.752 L551.995,101.459 M551.995,105.752 L553.128,108.346 L553.128,98.5078 M553.128,108.346 L553.964,112.311 L553.964,104.09 M553.964,112.311 L555.063,118.884 L555.063,105.063 M555.063,118.884 L555.876,115.276 L555.876,106.134 M555.876,115.276 L556.943,101.474 L556.943,99.9183 M556.943,101.474 L557.994,114.255 L557.994,101.791 M557.994,114.255 L559.027,111.451 L559.027,100.639 M559.027,111.451 L560.045,109.616 L560.045,105.72 M560.045,109.616 L561.046,103.475 L561.046,102.099 M561.046,103.475 L562.033,105.318 L562.033,104.19 M562.033,105.318 L563.005,110.526 L563.005,103.151 M563.005,110.526 L563.963,112.458 L563.963,106.101 M563.963,112.458 L564.906,113.314 L564.906,105.694 M564.906,113.314 L566.067,111.702 L566.067,103.516 M566.067,111.702 L566.981,110.595 L566.981,102.607 M566.981,110.595 L568.106,121.919 L568.106,101.866 M568.106,121.919 L568.992,110.135 L568.992,102.804 M568.992,110.135 L570.083,109.931 L570.083,101.412 M570.083,109.931 L570.942,106.327 L570.942,102.994 M570.942,106.327 L572.001,122.378 L572.001,105.472 M572.001,122.378 L573.043,114.123 L573.043,104.198 M573.043,114.123 L574.069,109.416 L574.069,103.741 M574.069,109.416 L575.078,111.883 L575.078,100.206 M575.078,111.883 L576.073,121.43 L576.073,108.176 M576.073,121.43 L577.052,114.387 L577.052,109.473 M577.052,114.387 L578.017,117.935 L578.017,106.127 M578.017,117.935 L578.968,106.174 L578.968,103.584 M578.968,106.174 L580.09,113.182 L580.09,104.903 M580.09,113.182 L581.011,116.046 L581.011,105.85 M581.011,116.046 L581.92,115.809 L581.92,103.778 M581.92,115.809 L582.993,108.891 L582.993,104.218 M582.993,108.891 L584.049,121.395 L584.049,105.771 M584.049,121.395 L584.916,119.95 L584.916,109.023 M584.916,119.95 L585.942,118.566 L585.942,108.252 M585.942,118.566 L586.952,121.824 L586.952,104.571 M586.952,121.824 L587.946,127.459 L587.946,112.215 M587.946,127.459 L588.925,111.845 L588.925,107.474 M588.925,111.845 L590.05,122.168 L590.05,107.401 M590.05,122.168 L590.998,117.812 L590.998,108.982 M590.998,117.812 L591.933,121.358 L591.933,108.671 M591.933,121.358 L593.007,115.922 L593.007,108.463 M593.007,115.922 L594.063,119.812 L594.063,108.264 M594.063,119.812 L594.955,117.805 L594.955,106.624 M594.955,117.805 L595.981,124.798 L595.981,109.648 M595.981,124.798 L596.991,113.147 L596.991,105.872 M596.991,113.147 L597.985,113.736 L597.985,107.893 M597.985,113.736 L598.964,125.708 L598.964,106.943 M598.964,125.708 L600.066,122.005 L600.066,106.227 M600.066,122.005 L601.015,129.008 L601.015,107.214 M601.015,129.008 L601.95,121.492 L601.95,112.332 M601.95,121.492 L603.002,118.791 L603.002,106.541 M603.002,118.791 L604.038,116.684 L604.038,108.417 M604.038,116.684 L605.058,114.455 L605.058,107.585 M605.058,114.455 L606.062,122.904 L606.062,109.198 M606.062,122.904 L607.05,124.715 L607.05,110.117 M607.05,124.715 L608.024,116.398 L608.024,106.295 M608.024,116.398 L608.984,117.155 L608.984,109.238 M608.984,117.155 L610.047,118.425 L610.047,106.646 M610.047,118.425 L610.977,117.17 L610.977,105.966 M610.977,117.17 L612.008,120.429 L612.008,105.69 M612.008,120.429 L613.023,136.925 L613.023,106.651 M613.023,136.925 L614.023,117.527 L614.023,107.194 M614.023,117.527 L615.007,113.628 L615.007,106.884 M615.007,113.628 L615.977,116.986 L615.977,106.073 M615.977,116.986 L617.037,116.787 L617.037,105.187 M617.037,116.787 L617.977,129.041 L617.977,110.02 M617.977,129.041 L619.006,126.167 L619.006,110.524 M619.006,126.167 L620.019,117.729 L620.019,108.633 M620.019,117.729 L621.017,131.207 L621.017,109.458 M621.017,131.207 L621.999,118.583 L621.999,108.349 M621.999,118.583 L622.967,122.71 L622.967,112.443 M622.967,122.71 L624.015,116.187 L624.015,107.902 M624.015,116.187 L624.953,123.025 L624.953,107.714 M624.953,123.025 L625.97,129.252 L625.97,110.443 M625.97,129.252 L626.972,123.294 L626.972,108.864 M626.972,123.294 L627.958,121.535 L627.958,110.067 M627.958,121.535 L629.017,124.748 L629.017,108.53 M629.017,124.748 L629.973,136.573 L629.973,111.237 M629.973,136.573 L631,120.241 L631,109.323 M631,120.241 L632.011,118.595 L632.011,108.506 M632.011,118.595 L633.007,126.004 L633.007,109.715 M633.007,126.004 L633.987,116.315 L633.987,106.884 M633.987,116.315 L635.033,123.419 L635.033,109.989 M635.033,123.419 L635.984,124.83 L635.984,107.993 M635.984,124.83 L636.999,115.553 L636.999,107.091 M636.999,115.553 L637.998,124.222 L637.998,109.105 M637.998,124.222 L638.982,122.582 L638.982,109.011 M638.982,122.582 L640.025,121.616 L640.025,108.688 M640.025,121.616 L640.979,124.046 L640.979,109.098 M640.979,124.046 L641.991,119.808 L641.991,107.214 M641.991,119.808 L642.988,122.416 L642.988,107.582 M642.988,122.416 L643.969,124.585 L643.969,106.78 M643.969,124.585 L645.005,123.604 L645.005,109.119 M645.005,123.604 L646.024,119.694 L646.024,109.208 M646.024,119.694 L647.028,119.369 L647.028,109.022 M647.028,119.369 L648.016,124.107 L648.016,107.481 M648.016,124.107 L648.989,122.555 L648.989,109.377 M648.989,122.555 L650.012,118.35 L650.012,105.791 M650.012,118.35 L651.019,123.093 L651.019,109.601 M651.019,123.093 L652.011,123.288 L652.011,109.401 M652.011,123.288 L652.987,120.21 L652.987,107.55 M652.987,120.21 L654.009,119.804 L654.009,107.499 M654.009,119.804 L655.015,123.274 L655.015,108.492 M655.015,123.274 L656.006,119.05 L656.006,106.708 M656.006,119.05 L656.982,130.126 L656.982,111.237 M656.982,130.126 L658,125.221 L658,109.637 M658,125.221 L659.002,128.32 L659.002,108.198 M659.002,128.32 L659.989,123.964 L659.989,107.871 M659.989,123.964 L661.015,120.195 L661.015,107.825 M661.015,120.195 L662.024,120.133 L662.024,107.757 M662.024,120.133 L663.019,133.073 L663.019,109.964 M663.019,133.073 L663.998,122.007 L663.998,107.969 M663.998,122.007 L665.014,126.184 L665.014,109.507 M665.014,126.184 L666.013,121.278 L666.013,110.137 M666.013,121.278 L666.998,124.093 L666.998,108.572 M666.998,124.093 L668.016,122.305 L668.016,110.1 M668.016,122.305 L669.018,125.528 L669.018,110.481 M669.018,125.528 L670.006,121.536 L670.006,108.616 M670.006,121.536 L670.978,120.365 L670.978,109.272 M670.978,120.365 L671.982,121.908 L671.982,108.828 M671.982,121.908 L673.014,127.538 L673.014,107.767 M673.014,127.538 L673.987,125.774 L673.987,108.491 M673.987,125.774 L674.989,129.776 L674.989,110.986 M674.989,129.776 L676.018,127.091 L676.018,108.986 M676.018,127.091 L676.989,126.605 L676.989,108.575 M676.989,126.605 L677.988,121.518 L677.988,110.351 M677.988,121.518 L679.011,125.732 L679.011,109.459 M679.011,125.732 L680.019,122.494 L680.019,108.452 M680.019,122.494 L681.012,121.73 L681.012,108.946 M681.012,121.73 L681.99,120.742 L681.99,107.326 M681.99,120.742 L682.991,126.49 L682.991,108.767 M682.991,126.49 L684.015,123.236 L684.015,108.72 M684.015,123.236 L684.986,117.917 L684.986,106.559 M684.986,117.917 L686.016,124.559 L686.016,109.409 M686.016,124.559 L686.994,123.007 L686.994,111.132 M686.994,123.007 L687.993,126.831 L687.993,106.968 M687.993,126.831 L689.011,133.396 L689.011,106.109 M689.011,133.396 L690.014,133.195 L690.014,109.43 M690.014,133.195 L691.002,122.252 L691.002,110.573 M691.002,122.252 L692.008,126.741 L692.008,114.849 M692.008,126.741 L692.999,138.501 L692.999,113.107 M692.999,138.501 L694.007,137.094 L694.007,115.225 M694.007,137.094 L694.968,136.267 L694.968,117.871 M694.968,136.267"/>
</g>

<g fill="none" stroke="#000000" stroke-opacity="1" stroke-width="1" stroke-linecap="square" stroke-linejoin="bevel" transform="matrix(1,0,0,1,32,0)"
font-family="Segoe UI" font-size="9" font-weight="400" font-style="normal" 
>
<polyline fill="none" vector-effect="none" points="29,156 723,156 " />
</g>

<g fill="#000000" fill-opacity="1" stroke="#000000" stroke-opacity="1" stroke-width="1" stroke-linecap="square" stroke-linejoin="bevel" transform="matrix(1,0,0,1,32,0)"
font-family="Segoe UI" font-size="9" font-weight="400" font-style="normal" 
>
<polyline fill="none" vector-effect="none" points="186,156 186,166 " />
</g>

<g fill="#a0a0a4" fill-opacity="1" stroke="none" transform="matrix(1,0,0,1,32,0)"
font-family="Segoe UI" font-size="9" font-weight="400" font-style="normal" 
>
<rect x="185" y="157" width="5" height="10"/>
</g>

<g fill="#000000" fill-opacity="1" stroke="#000000" stroke-opacity="1" stroke-width="1" stroke-linecap="square" stroke-linejoin="bevel" transform="matrix(1,0,0,1,32,0)"
font-family="Segoe UI" font-size="9" font-weight="400" font-style="normal" 
>
<polyline fill="none" vector-effect="none" points="190,156 190,166 " />
<rect x="189" y="161" width="2" height="5"/>
<polyline fill="none" vector-effect="none" points="197,156 197,166 " />
<rect x="196" y="161" width="2" height="5"/>
<polyline fill="none" vector-effect="none" points="202,156 202,166 " />
<polyline fill="none" vector-effect="none" points="207,156 207,166 " />
<rect x="206" y="161" width="2" height="5"/>
<polyline fill="none" vector-effect="none" points="214,156 214,166 " />
<rect x="213" y="161" width="2" height="5"/>
<polyline fill="none" vector-effect="none" points="222,156 222,166 " />
<rect x="221" y="161" width="2" height="5"/>
<polyline fill="none" vector-effect="none" points="227,156 227,166 " />
</g>

<g fill="#a0a0a4" fill-opacity="1" stroke="none" transform="matrix(1,0,0,1,32,0)"
font-family="Segoe UI" font-size="9" font-weight="400" font-style="normal" 
>
<rect x="228" y="157" width="4" height="10"/>
</g>

<g fill="#000000" fill-opacity="1" stroke="#000000" stroke-opacity="1" stroke-width="1" stroke-linecap="square" stroke-linejoin="bevel" transform="matrix(1,0,0,1,32,0)"
font-family="Segoe UI" font-size="9" font-weight="400" font-style="normal" 
>
<polyline fill="none" vector-effect="none" points="232,156 232,166 " />
<rect x="231" y="161" width="2" height="5"/>
<polyline fill="none" vector-effect="none" points="239,156 239,166 " />
<rect x="238" y="161" width="2" height="5"/>
<polyline fill="none" vector-effect="none" points="245,156 245,166 " />
<polyline fill="none" vector-effect="none" points="250,156 250,166 " />
<rect x="249" y="161" width="2" height="5"/>
<polyline fill="none" vector-effect="none" points="258,156 258,166 " />
<rect x="257" y="161" width="2" height="5"/>
<polyline fill="none" vector-effect="none" points="265,156 265,166 " />
<rect x="264" y="161" width="2" height="5"/>
<polyline fill="none" vector-effect="none" points="270,156 270,166 " />
</g>

<g fill="#a0a0a4" fill-opacity="1" stroke="none" transform="matrix(1,0,0,1,32,0)"
font-family="Segoe UI" font-size="9" font-weight="400" font-style="normal" 
>
<rect x="271" y="157" width="5" height="10"/>
</g>

<g fill="#000000" fill-opacity="1" stroke="#000000" stroke-opacity="1" stroke-width="1" stroke-linecap="square" stroke-linejoin="bevel" transform="matrix(1,0,0,1,32,0)"
font-family="Segoe UI" font-size="9" font-weight="400" font-style="normal" 
>
<polyline fill="none" vector-effect="none" points="276,156 276,166 " />
<rect x="275" y="161" width="2" height="5"/>
<polyline fill="none" vector-effect="none" points="283,156 283,166 " />
<rect x="282" y="161" width="2" height="5"/>
<polyline fill="none" vector-effect="none" points="289,156 289,166 " />
<polyline fill="none" vector-effect="none" points="294,156 294,166 " />
<rect x="293" y="161" width="2" height="5"/>
<polyline fill="none" vector-effect="none" points="302,156 302,166 " />
<rect x="301" y="161" width="2" height="5"/>
<polyline fill="none" vector-effect="none" points="309,156 309,166 " />
<rect x="308" y="161" width="2" height="5"/>
<polyline fill="none" vector-effect="none" points="315,156 315,166 " />
</g>

<g fill="#a0a0a4" fill-opacity="1" stroke="none" transform="matrix(1,0,0,1,32,0)"
font-family="Segoe UI" font-size="9" font-weight="400" font-style="normal" 
>
<rect x="316" y="157" width="4" height="10"/>
</g>

<g fill="#000000" fill-opacity="1" stroke="#000000" stroke-opacity="1" stroke-width="1" stroke-linecap="square" stroke-linejoin="bevel" transform="matrix(1,0,0,1,32,0)"
font-family="Segoe UI" font-size="9" font-weight="400" font-style="normal" 
>
<polyline fill="none" vector-effect="none" points="320,156 320,166 " />
<rect x="319" y="161" width="2" height="5"/>
<polyline fill="none" vector-effect="none" points="328,156 328,166 " />
<rect x="327" y="161" width="2" height="5"/>
<polyline fill="none" vector-effect="none" points="333,156 333,166 " />
<polyline fill="none" vector-effect="none" points="339,156 339,166 " />
<rect x="338" y="161" width="2" height="5"/>
<polyline fill="none" vector-effect="none" points="346,156 346,166 " />
<rect x="345" y="161" width="2" height="5"/>
<polyline fill="none" vector-effect="none" points="354,156 354,166 " />
<rect x="353" y="161" width="2" height="5"/>
<polyline fill="none" vector-effect="none" points="359,156 359,166 " />
</g>

<g fill="#a0a0a4" fill-opacity="1" stroke="none" transform="matrix(1,0,0,1,32,0)"
font-family="Segoe UI" font-size="9" font-weight="400" font-style="normal" 
>
<rect x="360" y="157" width="5" height="10"/>
</g>

<g fill="#000000" fill-opacity="1" stroke="#000000" stroke-opacity="1" stroke-width="1" stroke-linecap="square" stroke-linejoin="bevel" transform="matrix(1,0,0,1,32,0)"
font-family="Segoe UI" font-size="9" font-weight="400" font-style="normal" 
>
<polyline fill="none" vector-effect="none" points="365,156 365,166 " />
<rect x="364" y="161" width="2" height="5"/>
<polyline fill="none" vector-effect="none" points="373,156 373,166 " />
<rect x="372" y="161" width="2" height="5"/>
<polyline fill="none" vector-effect="none" points="378,156 378,166 " />
<polyline fill="none" vector-effect="none" points="384,156 384,166 " />
<rect x="383" y="161" width="2" height="5"/>
<polyline fill="none" vector-effect="none" points="391,156 391,166 " />
<rect x="390" y="161" width="2" height="5"/>
<polyline fill="none" vector-effect="none" points="399,156 399,166 " />
<rect x="398" y="161" width="2" height="5"/>
<polyline fill="none" vector-effect="none" points="404,156 404,166 " />
</g>

<g fill="#7f7fff" fill-opacity="1" stroke="none" transform="matrix(1,0,0,1,32,0)"
font-family="Segoe UI" font-size="9" font-weight="400" font-style="normal" 
>
<rect x="405" y="157" width="5" height="10"/>
</g>

<g fill="#000000" fill-opacity="1" stroke="#000000" stroke-opacity="1" stroke-width="1" stroke-linecap="square" stroke-linejoin="bevel" transform="matrix(1,0,0,1,32,0)"
font-family="Segoe UI" font-size="9" font-weight="400" font-style="normal" 
>
<polyline fill="none" vector-effect="none" points="410,156 410,166 " />
<rect x="409" y="161" width="2" height="5"/>
<polyline fill="none" vector-effect="none" points="418,156 418,166 " />
<rect x="417" y="161" width="2" height="5"/>
<polyline fill="none" vector-effect="none" points="423,156 423,166 " />
<polyline fill="none" vector-effect="none" points="429,156 429,166 " />
<rect x="428" y="161" width="2" height="5"/>
<polyline fill="none" vector-effect="none" points="436,156 436,166 " />
<rect x="435" y="161" width="2" height="5"/>
<polyline fill="none" vector-effect="none" points="444,156 444,166 " />
<rect x="443" y="161" width="2" height="5"/>
<polyline fill="none" vector-effect="none" points="449,156 449,166 " />
</g>

<g fill="#a0a0a4" fill-opacity="1" stroke="none" transform="matrix(1,0,0,1,32,0)"
font-family="Segoe UI" font-size="9" font-weight="400" font-style="normal" 
>
<rect x="450" y="157" width="5" height="10"/>
</g>

<g fill="#000000" fill-opacity="1" stroke="#000000" stroke-opacity="1" stroke-width="1" stroke-linecap="square" stroke-linejoin="bevel" transform="matrix(1,0,0,1,32,0)"
font-family="Segoe UI" font-size="9" font-weight="400" font-style="normal" 
>
<polyline fill="none" vector-effect="none" points="455,156 455,166 " />
<rect x="454" y="161" width="2" height="5"/>
<polyline fill="none" vector-effect="none" points="463,156 463,166 " />
<rect x="462" y="161" width="2" height="5"/>
<polyline fill="none" vector-effect="none" points="468,156 468,166 " />
<polyline fill="none" vector-effect="none" points="474,156 474,166 " />
<rect x="473" y="161" width="2" height="5"/>
<polyline fill="none" vector-effect="none" points="481,156 481,166 " />
<rect x="480" y="161" width="2" height="5"/>
<polyline fill="none" vector-effect="none" points="489,156 489,166 " />
<rect x="488" y="161" width="2" height="5"/>
<polyline fill="none" vector-effect="none" points="494,156 494,166 " />
</g>

<g fill="#a0a0a4" fill-opacity="1" stroke="none" transform="matrix(1,0,0,1,32,0)"
font-family="Segoe UI" font-size="9" font-weight="400" font-style="normal" 
>
<rect x="495" y="157" width="5" height="10"/>
</g>

<g fill="#000000" fill-opacity="1" stroke="#000000" stroke-opacity="1" stroke-width="1" stroke-linecap="square" stroke-linejoin="bevel" transform="matrix(1,0,0,1,32,0)"
font-family="Segoe UI" font-size="9" font-weight="400" font-style="normal" 
>
<polyline fill="none" vector-effect="none" points="500,156 500,166 " />
<rect x="499" y="161" width="2" height="5"/>
<polyline fill="none" vector-effect="none" points="508,156 508,166 " />
<rect x="507" y="161" width="2" height="5"/>
<polyline fill="none" vector-effect="none" points="513,156 513,166 " />
<polyline fill="none" vector-effect="none" points="519,156 519,166 " />
<rect x="518" y="161" width="2" height="5"/>
<polyline fill="none" vector-effect="none" points="527,156 527,166 " />
<rect x="526" y="161" width="2" height="5"/>
<polyline fill="none" vector-effect="none" points="534,156 534,166 " />
<rect x="533" y="161" width="2" height="5"/>
<polyline fill="none" vector-effect="none" points="540,156 540,166 " />
</g>

<g fill="#a0a0a4" fill-opacity="1" stroke="none" transform="matrix(1,0,0,1,32,0)"
font-family="Segoe UI" font-size="9" font-weight="400" font-style="normal" 
>
<rect x="541" y="157" width="4" height="10"/>
</g>

<g fill="#000000" fill-opacity="1" stroke="#000000" stroke-opacity="1" stroke-width="1" stroke-linecap="square" stroke-linejoin="bevel" transform="matrix(1,0,0,1,32,0)"
font-family="Segoe UI" font-size="9" font-weight="400" font-style="normal" 
>
<polyline fill="none" vector-effect="none" points="545,156 545,166 " />
<rect x="544" y="161" width="2" height="5"/>
<polyline fill="none" vector-effect="none" points="553,156 553,166 " />
<rect x="552" y="161" width="2" height="5"/>
<polyline fill="none" vector-effect="none" points="558,156 558,166 " />
<polyline fill="none" vector-effect="none" points="564,156 564,166 " />
<rect x="563" y="161" width="2" height="5"/>
<polyline fill="none" vector-effect="none" points="572,156 572,166 " />
<rect x="571" y="161" width="2" height="5"/>
<polyline fill="none" vector-effect="none" points="579,156 579,166 " />
<rect x="578" y="161" width="2" height="5"/>
<polyline fill="none" vector-effect="none" points="585,156 585,166 " />
</g>

<g fill="#a0a0a4" fill-opacity="1" stroke="none" transform="matrix(1,0,0,1,32,0)"
font-family="Segoe UI" font-size="9" font-weight="400" font-style="normal" 
>
<rect x="586" y="157" width="5" height="10"/>
</g>

<g fill="#000000" fill-opacity="1" stroke="#000000" stroke-opacity="1" stroke-width="1" stroke-linecap="square" stroke-linejoin="bevel" transform="matrix(1,0,0,1,32,0)"
font-family="Segoe UI" font-size="9" font-weight="400" font-style="normal" 
>
<polyline fill="none" vector-effect="none" points="591,156 591,166 " />
<rect x="590" y="161" width="2" height="5"/>
<polyline fill="none" vector-effect="none" points="598,156 598,166 " />
<rect x="597" y="161" width="2" height="5"/>
<polyline fill="none" vector-effect="none" points="604,156 604,166 " />
<polyline fill="none" vector-effect="none" points="609,156 609,166 " />
<rect x="608" y="161" width="2" height="5"/>
<polyline fill="none" vector-effect="none" points="617,156 617,166 " />
<rect x="616" y="161" width="2" height="5"/>
<polyline fill="none" vector-effect="none" points="624,156 624,166 " />
<rect x="623" y="161" width="2" height="5"/>
<polyline fill="none" vector-effect="none" points="630,156 630,166 " />
</g>

<g fill="#a0a0a4" fill-opacity="1" stroke="none" transform="matrix(1,0,0,1,32,0)"
font-family="Segoe UI" font-size="9" font-weight="400" font-style="normal" 
>
<rect x="631" y="157" width="5" height="10"/>
</g>

<g fill="#000000" fill-opacity="1" stroke="#000000" stroke-opacity="1" stroke-width="1" stroke-linecap="square" stroke-linejoin="bevel" transform="matrix(1,0,0,1,32,0)"
font-family="Segoe UI" font-size="9" font-weight="400" font-style="normal" 
>
<polyline fill="none" vector-effect="none" points="636,156 636,166 " />
<rect x="635" y="161" width="2" height="5"/>
<polyline fill="none" vector-effect="none" points="643,156 643,166 " />
<rect x="642" y="161" width="2" height="5"/>
<polyline fill="none" vector-effect="none" points="649,156 649,166 " />
<polyline fill="none" vector-effect="none" points="654,156 654,166 " />
<rect x="653" y="161" width="2" height="5"/>
<polyline fill="none" vector-effect="none" points="29,167 202,167 " />
<text fill="#000000" fill-opacity="1" stroke="none" xml:space="preserve" x="187" y="182" font-family="Segoe UI" font-size="9" font-weight="400" font-style="normal" 
 >Hz</text>
<polyline fill="none" vector-effect="none" points="202,167 897,167 " />
<polyline fill="none" vector-effect="none" points="227,167 227,199 " />
<text fill="#000000" fill-opacity="1" stroke="none" xml:space="preserve" x="232" y="182" font-family="Segoe UI" font-size="9" font-weight="400" font-style="normal" 
 >16</text>
<polyline fill="none" vector-effect="none" points="255,167 255,199 " />
<text fill="#000000" fill-opacity="1" stroke="none" xml:space="preserve" x="260" y="182" font-family="Segoe UI" font-size="9" font-weight="400" font-style="normal" 
 >25</text>
<polyline fill="none" vector-effect="none" points="285,167 285,199 " />
<text fill="#000000" fill-opacity="1" stroke="none" xml:space="preserve" x="290" y="182" font-family="Segoe UI" font-size="9" font-weight="400" font-style="normal" 
 >40</text>
<polyline fill="none" vector-effect="none" points="314,167 314,199 " />
<text fill="#000000" fill-opacity="1" stroke="none" xml:space="preserve" x="319" y="182" font-family="Segoe UI" font-size="9" font-weight="400" font-style="normal" 
 >63</text>
<polyline fill="none" vector-effect="none" points="344,167 344,199 " />
<text fill="#000000" fill-opacity="1" stroke="none" xml:space="preserve" x="349" y="182" font-family="Segoe UI" font-size="9" font-weight="400" font-style="normal" 
 >100</text>
<polyline fill="none" vector-effect="none" points="374,167 374,199 " />
<text fill="#000000" fill-opacity="1" stroke="none" xml:space="preserve" x="379" y="182" font-family="Segoe UI" font-size="9" font-weight="400" font-style="normal" 
 >160</text>
<polyline fill="none" vector-effect="none" points="403,167 403,199 " />
<text fill="#000000" fill-opacity="1" stroke="none" xml:space="preserve" x="408" y="182" font-family="Segoe UI" font-size="9" font-weight="400" font-style="normal" 
 >250</text>
<polyline fill="none" vector-effect="none" points="434,167 434,199 " />
<text fill="#000000" fill-opacity="1" stroke="none" xml:space="preserve" x="439" y="182" font-family="Segoe UI" font-size="9" font-weight="400" font-style="normal" 
 >400</text>
<polyline fill="none" vector-effect="none" points="463,167 463,199 " />
<text fill="#000000" fill-opacity="1" stroke="none" xml:space="preserve" x="468" y="182" font-family="Segoe UI" font-size="9" font-weight="400" font-style="normal" 
 >630</text>
<polyline fill="none" vector-effect="none" points="494,167 494,199 " />
<text fill="#000000" fill-opacity="1" stroke="none" xml:space="preserve" x="499" y="182" font-family="Segoe UI" font-size="9" font-weight="400" font-style="normal" 
 >1000</text>
<polyline fill="none" vector-effect="none" points="524,167 524,199 " />
<text fill="#000000" fill-opacity="1" stroke="none" xml:space="preserve" x="529" y="182" font-family="Segoe UI" font-size="9" font-weight="400" font-style="normal" 
 >1600</text>
<polyline fill="none" vector-effect="none" points="584,167 584,199 " />
<text fill="#000000" fill-opacity="1" stroke="none" xml:space="preserve" x="589" y="182" font-family="Segoe UI" font-size="9" font-weight="400" font-style="normal" 
 >4000</text>
<polyline fill="none" vector-effect="none" points="643,167 643,199 " />
<text fill="#000000" fill-opacity="1" stroke="none" xml:space="preserve" x="648" y="182" font-family="Segoe UI" font-size="9" font-weight="400" font-style="normal" 
 >1e+04</text>
<polyline fill="none" vector-effect="none" points="695,167 695,199 " />
<text fill="#000000" fill-opacity="1" stroke="none" xml:space="preserve" x="700" y="182" font-family="Segoe UI" font-size="9" font-weight="400" font-style="normal" 
 >2.5e+04</text>
</g>

<g fill="none" stroke="#000000" stroke-opacity="1" stroke-width="1" stroke-linecap="square" stroke-linejoin="bevel" transform="matrix(1,0,0,1,32,0)"
font-family="Segoe UI" font-size="9" font-weight="400" font-style="normal" 
>
</g>

<g fill="none" stroke="#000000" stroke-opacity="1" stroke-width="1" stroke-linecap="square" stroke-linejoin="bevel" transform="matrix(1,0,0,1,0,0)"
font-family="Segoe UI" font-size="9" font-weight="400" font-style="normal" 
>
</g>

<g fill="#ffffff" fill-opacity="1" stroke="#000000" stroke-opacity="1" stroke-width="1" stroke-linecap="square" stroke-linejoin="bevel" transform="matrix(1,0,0,1,0,0)"
font-family="Segoe UI" font-size="9" font-weight="400" font-style="normal" 
>
<rect x="0" y="-1" width="32" height="190"/>
</g>

<g fill="none" stroke="#000000" stroke-opacity="1" stroke-width="1" stroke-linecap="square" stroke-linejoin="bevel" transform="matrix(1,0,0,1,0,0)"
font-family="Segoe UI" font-size="9" font-weight="400" font-style="normal" 
>
<text fill="#000000" fill-opacity="1" stroke="none" xml:space="preserve" x="8" y="150" font-family="Segoe UI" font-size="9" font-weight="400" font-style="normal" 
 >-80</text>
<polyline fill="none" vector-effect="none" points="25,145 32,145 " />
<text fill="#000000" fill-opacity="1" stroke="none" xml:space="preserve" x="8" y="135" font-family="Segoe UI" font-size="9" font-weight="400" font-style="normal" 
 >-70</text>
<polyline fill="none" vector-effect="none" points="25,130 32,130 " />
<text fill="#000000" fill-opacity="1" stroke="none" xml:space="preserve" x="8" y="119" font-family="Segoe UI" font-size="9" font-weight="400" font-style="normal" 
 >-60</text>
<polyline fill="none" vector-effect="none" points="25,114 32,114 " />
<text fill="#000000" fill-opacity="1" stroke="none" xml:space="preserve" x="8" y="104" font-family="Segoe UI" font-size="9" font-weight="400" font-style="normal" 
 >-50</text>
<polyline fill="none" vector-effect="none" points="25,99 32,99 " />
<text fill="#000000" fill-opacity="1" stroke="none" xml:space="preserve" x="8" y="88" font-family="Segoe UI" font-size="9" font-weight="400" font-style="normal" 
 >-40</text>
<polyline fill="none" vector-effect="none" points="25,83 32,83 " />
<text fill="#000000" fill-opacity="1" stroke="none" xml:space="preserve" x="8" y="72" font-family="Segoe UI" font-size="9" font-weight="400" font-style="normal" 
 >-30</text>
<polyline fill="none" vector-effect="none" points="25,67 32,67 " />
<text fill="#000000" fill-opacity="1" stroke="none" xml:space="preserve" x="8" y="57" font-family="Segoe UI" font-size="9" font-weight="400" font-style="normal" 
 >-20</text>
<polyline fill="none" vector-effect="none" points="25,52 32,52 " />
<text fill="#000000" fill-opacity="1" stroke="none" xml:space="preserve" x="8" y="41" font-family="Segoe UI" font-size="9" font-weight="400" font-style="normal" 
 >-10</text>
<polyline fill="none" vector-effect="none" points="25,36 32,36 " />
<text fill="#000000" fill-opacity="1" stroke="none" xml:space="preserve" x="7" y="25" font-family="Segoe UI" font-size="9" font-weight="400" font-style="normal" 
 >0dB</text>
<polyline fill="none" vector-effect="none" points="25,20 32,20 " />
</g>

<g fill="none" stroke="#000000" stroke-opacity="1" stroke-width="1" stroke-linecap="square" stroke-linejoin="bevel" transform="matrix(1,0,0,1,0,0)"
font-family="Segoe UI" font-size="9" font-weight="400" font-style="normal" 
>
</g>
</g>
</svg>
